# MagicaVoxel @ Ephtracy

# group
g crosssign

# material
mtllib crosssign.mtl
usemtl palette

# normals
vn -1 0 0
vn 1 0 0
vn 0 0 1
vn 0 0 -1
vn 0 -1 0
vn 0 1 0

# texcoords
vt 0.416016 0.5
vt 0.994141 0.5

# verts
v -10 5 -1
v -10 5 -20
v -10 6 -0
v -10 6 -1
v -10 39 -0
v -10 39 -1
v -10 40 -1
v -10 40 -20
v -9 5 -0
v -9 5 -1
v -9 6 -0
v -9 6 -1
v -9 39 -0
v -9 39 -1
v -9 40 -0
v -9 40 -1
v -7 8 -0
v -7 8 -2
v -7 9 -0
v -7 9 -2
v -7 10 -0
v -7 10 -2
v -7 11 -0
v -7 11 -2
v -7 34 -0
v -7 34 -2
v -7 35 -0
v -7 35 -2
v -7 36 -0
v -7 36 -2
v -7 37 -0
v -7 37 -2
v -6 11 -0
v -6 11 -2
v -6 12 -0
v -6 12 -2
v -6 13 -0
v -6 13 -2
v -6 14 -0
v -6 14 -2
v -6 31 -0
v -6 31 -2
v -6 32 -0
v -6 32 -2
v -6 33 -0
v -6 33 -2
v -6 34 -0
v -6 34 -2
v -5 14 -0
v -5 14 -2
v -5 16 -0
v -5 16 -2
v -5 29 -0
v -5 29 -2
v -5 31 -0
v -5 31 -2
v -4 16 -0
v -4 16 -2
v -4 18 -0
v -4 18 -2
v -4 27 -0
v -4 27 -2
v -4 29 -0
v -4 29 -2
v -3 18 -0
v -3 18 -2
v -3 20 -0
v -3 20 -2
v -3 25 -0
v -3 25 -2
v -3 27 -0
v -3 27 -2
v -2 20 -0
v -2 20 -2
v -2 22 -0
v -2 22 -2
v -2 23 -0
v -2 23 -2
v -2 25 -0
v -2 25 -2
v -1 22 -0
v -1 22 -2
v -1 23 -0
v -1 23 -2
v 0 20 -0
v 0 20 -2
v 0 22 -0
v 0 22 -2
v 0 23 -0
v 0 23 -2
v 0 25 -0
v 0 25 -2
v 1 18 -0
v 1 18 -2
v 1 20 -0
v 1 20 -2
v 1 25 -0
v 1 25 -2
v 1 27 -0
v 1 27 -2
v 2 16 -0
v 2 16 -2
v 2 18 -0
v 2 18 -2
v 2 27 -0
v 2 27 -2
v 2 29 -0
v 2 29 -2
v 3 14 -0
v 3 14 -2
v 3 16 -0
v 3 16 -2
v 3 29 -0
v 3 29 -2
v 3 31 -0
v 3 31 -2
v 4 11 -0
v 4 11 -2
v 4 12 -0
v 4 12 -2
v 4 13 -0
v 4 13 -2
v 4 14 -0
v 4 14 -2
v 4 31 -0
v 4 31 -2
v 4 32 -0
v 4 32 -2
v 4 33 -0
v 4 33 -2
v 4 34 -0
v 4 34 -2
v 5 8 -0
v 5 8 -2
v 5 9 -0
v 5 9 -2
v 5 10 -0
v 5 10 -2
v 5 11 -0
v 5 11 -2
v 5 34 -0
v 5 34 -2
v 5 35 -0
v 5 35 -2
v 5 36 -0
v 5 36 -2
v 5 37 -0
v 5 37 -2
v 8 6 -0
v 8 6 -2
v 8 39 -0
v 8 39 -2
v -9 6 -0
v -9 6 -2
v -9 39 -0
v -9 39 -2
v -6 8 -0
v -6 8 -2
v -6 9 -0
v -6 9 -2
v -6 10 -0
v -6 10 -2
v -6 11 -0
v -6 11 -2
v -6 34 -0
v -6 34 -2
v -6 35 -0
v -6 35 -2
v -6 36 -0
v -6 36 -2
v -6 37 -0
v -6 37 -2
v -5 11 -0
v -5 11 -2
v -5 12 -0
v -5 12 -2
v -5 13 -0
v -5 13 -2
v -5 14 -0
v -5 14 -2
v -5 31 -0
v -5 31 -2
v -5 32 -0
v -5 32 -2
v -5 33 -0
v -5 33 -2
v -5 34 -0
v -5 34 -2
v -4 14 -0
v -4 14 -2
v -4 16 -0
v -4 16 -2
v -4 29 -0
v -4 29 -2
v -4 31 -0
v -4 31 -2
v -3 16 -0
v -3 16 -2
v -3 18 -0
v -3 18 -2
v -3 27 -0
v -3 27 -2
v -3 29 -0
v -3 29 -2
v -2 18 -0
v -2 18 -2
v -2 20 -0
v -2 20 -2
v -2 25 -0
v -2 25 -2
v -2 27 -0
v -2 27 -2
v -1 20 -0
v -1 20 -2
v -1 22 -0
v -1 22 -2
v -1 23 -0
v -1 23 -2
v -1 25 -0
v -1 25 -2
v 0 22 -0
v 0 22 -2
v 0 23 -0
v 0 23 -2
v 1 20 -0
v 1 20 -2
v 1 22 -0
v 1 22 -2
v 1 23 -0
v 1 23 -2
v 1 25 -0
v 1 25 -2
v 2 18 -0
v 2 18 -2
v 2 20 -0
v 2 20 -2
v 2 25 -0
v 2 25 -2
v 2 27 -0
v 2 27 -2
v 3 16 -0
v 3 16 -2
v 3 18 -0
v 3 18 -2
v 3 27 -0
v 3 27 -2
v 3 29 -0
v 3 29 -2
v 4 14 -0
v 4 14 -2
v 4 16 -0
v 4 16 -2
v 4 29 -0
v 4 29 -2
v 4 31 -0
v 4 31 -2
v 5 11 -0
v 5 11 -2
v 5 12 -0
v 5 12 -2
v 5 13 -0
v 5 13 -2
v 5 14 -0
v 5 14 -2
v 5 31 -0
v 5 31 -2
v 5 32 -0
v 5 32 -2
v 5 33 -0
v 5 33 -2
v 5 34 -0
v 5 34 -2
v 6 8 -0
v 6 8 -2
v 6 9 -0
v 6 9 -2
v 6 10 -0
v 6 10 -2
v 6 11 -0
v 6 11 -2
v 6 34 -0
v 6 34 -2
v 6 35 -0
v 6 35 -2
v 6 36 -0
v 6 36 -2
v 6 37 -0
v 6 37 -2
v 8 5 -0
v 8 5 -1
v 8 6 -0
v 8 6 -1
v 8 39 -0
v 8 39 -1
v 8 40 -0
v 8 40 -1
v 9 5 -1
v 9 5 -20
v 9 6 -0
v 9 6 -1
v 9 39 -0
v 9 39 -1
v 9 40 -1
v 9 40 -20
v -10 6 -0
v -10 39 -0
v -9 5 -0
v -9 6 -0
v -9 39 -0
v -9 40 -0
v -7 8 -0
v -7 9 -0
v -7 10 -0
v -7 11 -0
v -7 34 -0
v -7 35 -0
v -7 36 -0
v -7 37 -0
v -6 8 -0
v -6 9 -0
v -6 10 -0
v -6 11 -0
v -6 12 -0
v -6 13 -0
v -6 14 -0
v -6 31 -0
v -6 32 -0
v -6 33 -0
v -6 34 -0
v -6 35 -0
v -6 36 -0
v -6 37 -0
v -5 11 -0
v -5 12 -0
v -5 13 -0
v -5 14 -0
v -5 16 -0
v -5 29 -0
v -5 31 -0
v -5 32 -0
v -5 33 -0
v -5 34 -0
v -4 14 -0
v -4 16 -0
v -4 18 -0
v -4 27 -0
v -4 29 -0
v -4 31 -0
v -3 16 -0
v -3 18 -0
v -3 20 -0
v -3 25 -0
v -3 27 -0
v -3 29 -0
v -2 18 -0
v -2 20 -0
v -2 22 -0
v -2 23 -0
v -2 25 -0
v -2 27 -0
v -1 20 -0
v -1 22 -0
v -1 23 -0
v -1 25 -0
v 0 20 -0
v 0 22 -0
v 0 23 -0
v 0 25 -0
v 1 18 -0
v 1 20 -0
v 1 22 -0
v 1 23 -0
v 1 25 -0
v 1 27 -0
v 2 16 -0
v 2 18 -0
v 2 20 -0
v 2 25 -0
v 2 27 -0
v 2 29 -0
v 3 14 -0
v 3 16 -0
v 3 18 -0
v 3 27 -0
v 3 29 -0
v 3 31 -0
v 4 11 -0
v 4 12 -0
v 4 13 -0
v 4 14 -0
v 4 16 -0
v 4 29 -0
v 4 31 -0
v 4 32 -0
v 4 33 -0
v 4 34 -0
v 5 8 -0
v 5 9 -0
v 5 10 -0
v 5 11 -0
v 5 12 -0
v 5 13 -0
v 5 14 -0
v 5 31 -0
v 5 32 -0
v 5 33 -0
v 5 34 -0
v 5 35 -0
v 5 36 -0
v 5 37 -0
v 6 8 -0
v 6 9 -0
v 6 10 -0
v 6 11 -0
v 6 34 -0
v 6 35 -0
v 6 36 -0
v 6 37 -0
v 8 5 -0
v 8 6 -0
v 8 39 -0
v 8 40 -0
v 9 6 -0
v 9 39 -0
v -10 5 -1
v -10 6 -1
v -10 39 -1
v -10 40 -1
v -9 5 -1
v -9 6 -1
v -9 39 -1
v -9 40 -1
v 8 5 -1
v 8 6 -1
v 8 39 -1
v 8 40 -1
v 9 5 -1
v 9 6 -1
v 9 39 -1
v 9 40 -1
v -9 6 -2
v -9 39 -2
v -7 8 -2
v -7 9 -2
v -7 10 -2
v -7 11 -2
v -7 34 -2
v -7 35 -2
v -7 36 -2
v -7 37 -2
v -6 8 -2
v -6 9 -2
v -6 10 -2
v -6 11 -2
v -6 12 -2
v -6 13 -2
v -6 14 -2
v -6 31 -2
v -6 32 -2
v -6 33 -2
v -6 34 -2
v -6 35 -2
v -6 36 -2
v -6 37 -2
v -5 11 -2
v -5 12 -2
v -5 13 -2
v -5 14 -2
v -5 16 -2
v -5 29 -2
v -5 31 -2
v -5 32 -2
v -5 33 -2
v -5 34 -2
v -4 14 -2
v -4 16 -2
v -4 18 -2
v -4 27 -2
v -4 29 -2
v -4 31 -2
v -3 16 -2
v -3 18 -2
v -3 20 -2
v -3 25 -2
v -3 27 -2
v -3 29 -2
v -2 18 -2
v -2 20 -2
v -2 22 -2
v -2 23 -2
v -2 25 -2
v -2 27 -2
v -1 20 -2
v -1 22 -2
v -1 23 -2
v -1 25 -2
v 0 20 -2
v 0 22 -2
v 0 23 -2
v 0 25 -2
v 1 18 -2
v 1 20 -2
v 1 22 -2
v 1 23 -2
v 1 25 -2
v 1 27 -2
v 2 16 -2
v 2 18 -2
v 2 20 -2
v 2 25 -2
v 2 27 -2
v 2 29 -2
v 3 14 -2
v 3 16 -2
v 3 18 -2
v 3 27 -2
v 3 29 -2
v 3 31 -2
v 4 11 -2
v 4 12 -2
v 4 13 -2
v 4 14 -2
v 4 16 -2
v 4 29 -2
v 4 31 -2
v 4 32 -2
v 4 33 -2
v 4 34 -2
v 5 8 -2
v 5 9 -2
v 5 10 -2
v 5 11 -2
v 5 12 -2
v 5 13 -2
v 5 14 -2
v 5 31 -2
v 5 32 -2
v 5 33 -2
v 5 34 -2
v 5 35 -2
v 5 36 -2
v 5 37 -2
v 6 8 -2
v 6 9 -2
v 6 10 -2
v 6 11 -2
v 6 34 -2
v 6 35 -2
v 6 36 -2
v 6 37 -2
v 8 6 -2
v 8 39 -2
v -10 5 -20
v -10 40 -20
v 9 5 -20
v 9 40 -20
v -9 5 -0
v 8 5 -0
v -10 5 -1
v -9 5 -1
v 8 5 -1
v 9 5 -1
v -10 5 -20
v 9 5 -20
v -10 6 -0
v -9 6 -0
v 8 6 -0
v 9 6 -0
v -10 6 -1
v -9 6 -1
v 8 6 -1
v 9 6 -1
v -7 8 -0
v -6 8 -0
v 5 8 -0
v 6 8 -0
v -7 8 -2
v -6 8 -2
v 5 8 -2
v 6 8 -2
v -7 10 -0
v -6 10 -0
v 5 10 -0
v 6 10 -0
v -7 10 -2
v -6 10 -2
v 5 10 -2
v 6 10 -2
v -6 11 -0
v -5 11 -0
v 4 11 -0
v 5 11 -0
v -6 11 -2
v -5 11 -2
v 4 11 -2
v 5 11 -2
v -6 13 -0
v -5 13 -0
v 4 13 -0
v 5 13 -0
v -6 13 -2
v -5 13 -2
v 4 13 -2
v 5 13 -2
v -5 14 -0
v -4 14 -0
v 3 14 -0
v 4 14 -0
v -5 14 -2
v -4 14 -2
v 3 14 -2
v 4 14 -2
v -4 16 -0
v -3 16 -0
v 2 16 -0
v 3 16 -0
v -4 16 -2
v -3 16 -2
v 2 16 -2
v 3 16 -2
v -3 18 -0
v -2 18 -0
v 1 18 -0
v 2 18 -0
v -3 18 -2
v -2 18 -2
v 1 18 -2
v 2 18 -2
v -2 20 -0
v -1 20 -0
v 0 20 -0
v 1 20 -0
v -2 20 -2
v -1 20 -2
v 0 20 -2
v 1 20 -2
v -1 22 -0
v 0 22 -0
v -1 22 -2
v 0 22 -2
v -2 23 -0
v -1 23 -0
v 0 23 -0
v 1 23 -0
v -2 23 -2
v -1 23 -2
v 0 23 -2
v 1 23 -2
v -3 25 -0
v -2 25 -0
v 1 25 -0
v 2 25 -0
v -3 25 -2
v -2 25 -2
v 1 25 -2
v 2 25 -2
v -4 27 -0
v -3 27 -0
v 2 27 -0
v 3 27 -0
v -4 27 -2
v -3 27 -2
v 2 27 -2
v 3 27 -2
v -5 29 -0
v -4 29 -0
v 3 29 -0
v 4 29 -0
v -5 29 -2
v -4 29 -2
v 3 29 -2
v 4 29 -2
v -6 31 -0
v -5 31 -0
v 4 31 -0
v 5 31 -0
v -6 31 -2
v -5 31 -2
v 4 31 -2
v 5 31 -2
v -6 33 -0
v -5 33 -0
v 4 33 -0
v 5 33 -0
v -6 33 -2
v -5 33 -2
v 4 33 -2
v 5 33 -2
v -7 34 -0
v -6 34 -0
v 5 34 -0
v 6 34 -0
v -7 34 -2
v -6 34 -2
v 5 34 -2
v 6 34 -2
v -7 36 -0
v -6 36 -0
v 5 36 -0
v 6 36 -0
v -7 36 -2
v -6 36 -2
v 5 36 -2
v 6 36 -2
v -9 39 -0
v 8 39 -0
v -9 39 -2
v 8 39 -2
v -9 6 -0
v 8 6 -0
v -9 6 -2
v 8 6 -2
v -7 9 -0
v -6 9 -0
v 5 9 -0
v 6 9 -0
v -7 9 -2
v -6 9 -2
v 5 9 -2
v 6 9 -2
v -7 11 -0
v -6 11 -0
v 5 11 -0
v 6 11 -0
v -7 11 -2
v -6 11 -2
v 5 11 -2
v 6 11 -2
v -6 12 -0
v -5 12 -0
v 4 12 -0
v 5 12 -0
v -6 12 -2
v -5 12 -2
v 4 12 -2
v 5 12 -2
v -6 14 -0
v -5 14 -0
v 4 14 -0
v 5 14 -0
v -6 14 -2
v -5 14 -2
v 4 14 -2
v 5 14 -2
v -5 16 -0
v -4 16 -0
v 3 16 -0
v 4 16 -0
v -5 16 -2
v -4 16 -2
v 3 16 -2
v 4 16 -2
v -4 18 -0
v -3 18 -0
v 2 18 -0
v 3 18 -0
v -4 18 -2
v -3 18 -2
v 2 18 -2
v 3 18 -2
v -3 20 -0
v -2 20 -0
v 1 20 -0
v 2 20 -0
v -3 20 -2
v -2 20 -2
v 1 20 -2
v 2 20 -2
v -2 22 -0
v -1 22 -0
v 0 22 -0
v 1 22 -0
v -2 22 -2
v -1 22 -2
v 0 22 -2
v 1 22 -2
v -1 23 -0
v 0 23 -0
v -1 23 -2
v 0 23 -2
v -2 25 -0
v -1 25 -0
v 0 25 -0
v 1 25 -0
v -2 25 -2
v -1 25 -2
v 0 25 -2
v 1 25 -2
v -3 27 -0
v -2 27 -0
v 1 27 -0
v 2 27 -0
v -3 27 -2
v -2 27 -2
v 1 27 -2
v 2 27 -2
v -4 29 -0
v -3 29 -0
v 2 29 -0
v 3 29 -0
v -4 29 -2
v -3 29 -2
v 2 29 -2
v 3 29 -2
v -5 31 -0
v -4 31 -0
v 3 31 -0
v 4 31 -0
v -5 31 -2
v -4 31 -2
v 3 31 -2
v 4 31 -2
v -6 32 -0
v -5 32 -0
v 4 32 -0
v 5 32 -0
v -6 32 -2
v -5 32 -2
v 4 32 -2
v 5 32 -2
v -6 34 -0
v -5 34 -0
v 4 34 -0
v 5 34 -0
v -6 34 -2
v -5 34 -2
v 4 34 -2
v 5 34 -2
v -7 35 -0
v -6 35 -0
v 5 35 -0
v 6 35 -0
v -7 35 -2
v -6 35 -2
v 5 35 -2
v 6 35 -2
v -7 37 -0
v -6 37 -0
v 5 37 -0
v 6 37 -0
v -7 37 -2
v -6 37 -2
v 5 37 -2
v 6 37 -2
v -10 39 -0
v -9 39 -0
v 8 39 -0
v 9 39 -0
v -10 39 -1
v -9 39 -1
v 8 39 -1
v 9 39 -1
v -9 40 -0
v 8 40 -0
v -10 40 -1
v -9 40 -1
v 8 40 -1
v 9 40 -1
v -10 40 -20
v 9 40 -20

# faces
f 4/2/1 2/2/1 1/2/1
f 5/2/1 4/2/1 3/2/1
f 6/2/1 2/2/1 4/2/1
f 6/2/1 4/2/1 5/2/1
f 7/2/1 2/2/1 6/2/1
f 8/2/1 2/2/1 7/2/1
f 11/2/1 10/2/1 9/2/1
f 12/2/1 10/2/1 11/2/1
f 15/2/1 14/2/1 13/2/1
f 16/2/1 14/2/1 15/2/1
f 19/1/1 18/1/1 17/1/1
f 20/1/1 18/1/1 19/1/1
f 23/1/1 22/1/1 21/1/1
f 24/1/1 22/1/1 23/1/1
f 27/1/1 26/1/1 25/1/1
f 28/1/1 26/1/1 27/1/1
f 31/1/1 30/1/1 29/1/1
f 32/1/1 30/1/1 31/1/1
f 35/1/1 34/1/1 33/1/1
f 36/1/1 34/1/1 35/1/1
f 39/1/1 38/1/1 37/1/1
f 40/1/1 38/1/1 39/1/1
f 43/1/1 42/1/1 41/1/1
f 44/1/1 42/1/1 43/1/1
f 47/1/1 46/1/1 45/1/1
f 48/1/1 46/1/1 47/1/1
f 51/1/1 50/1/1 49/1/1
f 52/1/1 50/1/1 51/1/1
f 55/1/1 54/1/1 53/1/1
f 56/1/1 54/1/1 55/1/1
f 59/1/1 58/1/1 57/1/1
f 60/1/1 58/1/1 59/1/1
f 63/1/1 62/1/1 61/1/1
f 64/1/1 62/1/1 63/1/1
f 67/1/1 66/1/1 65/1/1
f 68/1/1 66/1/1 67/1/1
f 71/1/1 70/1/1 69/1/1
f 72/1/1 70/1/1 71/1/1
f 75/1/1 74/1/1 73/1/1
f 76/1/1 74/1/1 75/1/1
f 79/1/1 78/1/1 77/1/1
f 80/1/1 78/1/1 79/1/1
f 83/1/1 82/1/1 81/1/1
f 84/1/1 82/1/1 83/1/1
f 87/1/1 86/1/1 85/1/1
f 88/1/1 86/1/1 87/1/1
f 91/1/1 90/1/1 89/1/1
f 92/1/1 90/1/1 91/1/1
f 95/1/1 94/1/1 93/1/1
f 96/1/1 94/1/1 95/1/1
f 99/1/1 98/1/1 97/1/1
f 100/1/1 98/1/1 99/1/1
f 103/1/1 102/1/1 101/1/1
f 104/1/1 102/1/1 103/1/1
f 107/1/1 106/1/1 105/1/1
f 108/1/1 106/1/1 107/1/1
f 111/1/1 110/1/1 109/1/1
f 112/1/1 110/1/1 111/1/1
f 115/1/1 114/1/1 113/1/1
f 116/1/1 114/1/1 115/1/1
f 119/1/1 118/1/1 117/1/1
f 120/1/1 118/1/1 119/1/1
f 123/1/1 122/1/1 121/1/1
f 124/1/1 122/1/1 123/1/1
f 127/1/1 126/1/1 125/1/1
f 128/1/1 126/1/1 127/1/1
f 131/1/1 130/1/1 129/1/1
f 132/1/1 130/1/1 131/1/1
f 135/1/1 134/1/1 133/1/1
f 136/1/1 134/1/1 135/1/1
f 139/1/1 138/1/1 137/1/1
f 140/1/1 138/1/1 139/1/1
f 143/1/1 142/1/1 141/1/1
f 144/1/1 142/1/1 143/1/1
f 147/1/1 146/1/1 145/1/1
f 148/1/1 146/1/1 147/1/1
f 151/2/1 150/2/1 149/2/1
f 152/2/1 150/2/1 151/2/1
f 153/2/2 154/2/2 155/2/2
f 155/2/2 154/2/2 156/2/2
f 157/1/2 158/1/2 159/1/2
f 159/1/2 158/1/2 160/1/2
f 161/1/2 162/1/2 163/1/2
f 163/1/2 162/1/2 164/1/2
f 165/1/2 166/1/2 167/1/2
f 167/1/2 166/1/2 168/1/2
f 169/1/2 170/1/2 171/1/2
f 171/1/2 170/1/2 172/1/2
f 173/1/2 174/1/2 175/1/2
f 175/1/2 174/1/2 176/1/2
f 177/1/2 178/1/2 179/1/2
f 179/1/2 178/1/2 180/1/2
f 181/1/2 182/1/2 183/1/2
f 183/1/2 182/1/2 184/1/2
f 185/1/2 186/1/2 187/1/2
f 187/1/2 186/1/2 188/1/2
f 189/1/2 190/1/2 191/1/2
f 191/1/2 190/1/2 192/1/2
f 193/1/2 194/1/2 195/1/2
f 195/1/2 194/1/2 196/1/2
f 197/1/2 198/1/2 199/1/2
f 199/1/2 198/1/2 200/1/2
f 201/1/2 202/1/2 203/1/2
f 203/1/2 202/1/2 204/1/2
f 205/1/2 206/1/2 207/1/2
f 207/1/2 206/1/2 208/1/2
f 209/1/2 210/1/2 211/1/2
f 211/1/2 210/1/2 212/1/2
f 213/1/2 214/1/2 215/1/2
f 215/1/2 214/1/2 216/1/2
f 217/1/2 218/1/2 219/1/2
f 219/1/2 218/1/2 220/1/2
f 221/1/2 222/1/2 223/1/2
f 223/1/2 222/1/2 224/1/2
f 225/1/2 226/1/2 227/1/2
f 227/1/2 226/1/2 228/1/2
f 229/1/2 230/1/2 231/1/2
f 231/1/2 230/1/2 232/1/2
f 233/1/2 234/1/2 235/1/2
f 235/1/2 234/1/2 236/1/2
f 237/1/2 238/1/2 239/1/2
f 239/1/2 238/1/2 240/1/2
f 241/1/2 242/1/2 243/1/2
f 243/1/2 242/1/2 244/1/2
f 245/1/2 246/1/2 247/1/2
f 247/1/2 246/1/2 248/1/2
f 249/1/2 250/1/2 251/1/2
f 251/1/2 250/1/2 252/1/2
f 253/1/2 254/1/2 255/1/2
f 255/1/2 254/1/2 256/1/2
f 257/1/2 258/1/2 259/1/2
f 259/1/2 258/1/2 260/1/2
f 261/1/2 262/1/2 263/1/2
f 263/1/2 262/1/2 264/1/2
f 265/1/2 266/1/2 267/1/2
f 267/1/2 266/1/2 268/1/2
f 269/1/2 270/1/2 271/1/2
f 271/1/2 270/1/2 272/1/2
f 273/1/2 274/1/2 275/1/2
f 275/1/2 274/1/2 276/1/2
f 277/1/2 278/1/2 279/1/2
f 279/1/2 278/1/2 280/1/2
f 281/1/2 282/1/2 283/1/2
f 283/1/2 282/1/2 284/1/2
f 285/1/2 286/1/2 287/1/2
f 287/1/2 286/1/2 288/1/2
f 289/2/2 290/2/2 291/2/2
f 291/2/2 290/2/2 292/2/2
f 293/2/2 294/2/2 295/2/2
f 295/2/2 294/2/2 296/2/2
f 297/2/2 298/2/2 300/2/2
f 299/2/2 300/2/2 301/2/2
f 300/2/2 298/2/2 302/2/2
f 301/2/2 300/2/2 302/2/2
f 302/2/2 298/2/2 303/2/2
f 303/2/2 298/2/2 304/2/2
f 308/2/3 306/2/3 305/2/3
f 309/2/3 306/2/3 308/2/3
f 319/1/3 312/1/3 311/1/3
f 320/1/3 312/1/3 319/1/3
f 321/1/3 314/1/3 313/1/3
f 322/1/3 314/1/3 321/1/3
f 329/1/3 316/1/3 315/1/3
f 330/1/3 316/1/3 329/1/3
f 331/1/3 318/1/3 317/1/3
f 332/1/3 318/1/3 331/1/3
f 333/1/3 323/1/3 322/1/3
f 334/1/3 323/1/3 333/1/3
f 335/1/3 325/1/3 324/1/3
f 336/1/3 325/1/3 335/1/3
f 339/1/3 327/1/3 326/1/3
f 340/1/3 327/1/3 339/1/3
f 341/1/3 329/1/3 328/1/3
f 342/1/3 329/1/3 341/1/3
f 343/1/3 337/1/3 336/1/3
f 344/1/3 337/1/3 343/1/3
f 347/1/3 339/1/3 338/1/3
f 348/1/3 339/1/3 347/1/3
f 349/1/3 345/1/3 344/1/3
f 350/1/3 345/1/3 349/1/3
f 353/1/3 347/1/3 346/1/3
f 354/1/3 347/1/3 353/1/3
f 355/1/3 351/1/3 350/1/3
f 356/1/3 351/1/3 355/1/3
f 359/1/3 353/1/3 352/1/3
f 360/1/3 353/1/3 359/1/3
f 361/1/3 357/1/3 356/1/3
f 362/1/3 357/1/3 361/1/3
f 363/1/3 359/1/3 358/1/3
f 364/1/3 359/1/3 363/1/3
f 366/1/3 363/1/3 362/1/3
f 367/1/3 363/1/3 366/1/3
f 370/1/3 366/1/3 365/1/3
f 371/1/3 366/1/3 370/1/3
f 372/1/3 368/1/3 367/1/3
f 373/1/3 368/1/3 372/1/3
f 376/1/3 370/1/3 369/1/3
f 377/1/3 370/1/3 376/1/3
f 378/1/3 374/1/3 373/1/3
f 379/1/3 374/1/3 378/1/3
f 382/1/3 376/1/3 375/1/3
f 383/1/3 376/1/3 382/1/3
f 384/1/3 380/1/3 379/1/3
f 385/1/3 380/1/3 384/1/3
f 390/1/3 382/1/3 381/1/3
f 391/1/3 382/1/3 390/1/3
f 392/1/3 386/1/3 385/1/3
f 393/1/3 386/1/3 392/1/3
f 400/1/3 388/1/3 387/1/3
f 401/1/3 388/1/3 400/1/3
f 402/1/3 390/1/3 389/1/3
f 403/1/3 390/1/3 402/1/3
f 404/1/3 394/1/3 393/1/3
f 405/1/3 394/1/3 404/1/3
f 406/1/3 396/1/3 395/1/3
f 407/1/3 396/1/3 406/1/3
f 411/1/3 398/1/3 397/1/3
f 412/1/3 398/1/3 411/1/3
f 413/1/3 400/1/3 399/1/3
f 414/1/3 400/1/3 413/1/3
f 415/1/3 408/1/3 407/1/3
f 416/1/3 408/1/3 415/1/3
f 417/1/3 410/1/3 409/1/3
f 418/1/3 410/1/3 417/1/3
f 419/2/3 308/2/3 307/2/3
f 420/2/3 308/2/3 419/2/3
f 421/2/3 310/2/3 309/2/3
f 422/2/3 310/2/3 421/2/3
f 423/2/3 421/2/3 420/2/3
f 424/2/3 421/2/3 423/2/3
f 429/2/3 426/2/3 425/2/3
f 430/2/3 426/2/3 429/2/3
f 431/2/3 428/2/3 427/2/3
f 432/2/3 428/2/3 431/2/3
f 437/2/3 434/2/3 433/2/3
f 438/2/3 434/2/3 437/2/3
f 439/2/3 436/2/3 435/2/3
f 440/2/3 436/2/3 439/2/3
f 443/2/3 442/2/3 441/2/3
f 444/2/3 442/2/3 443/2/3
f 445/2/3 442/2/3 444/2/3
f 446/2/3 442/2/3 445/2/3
f 447/2/3 442/2/3 446/2/3
f 448/2/3 442/2/3 447/2/3
f 449/2/3 442/2/3 448/2/3
f 450/2/3 442/2/3 449/2/3
f 451/2/3 443/2/3 441/2/3
f 452/2/3 445/2/3 444/2/3
f 453/2/3 445/2/3 452/2/3
f 454/2/3 447/2/3 446/2/3
f 455/2/3 447/2/3 454/2/3
f 456/2/3 447/2/3 455/2/3
f 457/2/3 447/2/3 456/2/3
f 458/2/3 447/2/3 457/2/3
f 459/2/3 447/2/3 458/2/3
f 460/2/3 447/2/3 459/2/3
f 461/2/3 447/2/3 460/2/3
f 462/2/3 449/2/3 448/2/3
f 463/2/3 449/2/3 462/2/3
f 464/2/3 442/2/3 450/2/3
f 465/2/3 453/2/3 452/2/3
f 465/2/3 452/2/3 451/2/3
f 465/2/3 454/2/3 453/2/3
f 466/2/3 456/2/3 455/2/3
f 467/2/3 456/2/3 466/2/3
f 468/2/3 458/2/3 457/2/3
f 469/2/3 458/2/3 468/2/3
f 470/2/3 458/2/3 469/2/3
f 471/2/3 458/2/3 470/2/3
f 472/2/3 460/2/3 459/2/3
f 473/2/3 460/2/3 472/2/3
f 474/2/3 463/2/3 462/2/3
f 474/2/3 464/2/3 463/2/3
f 474/2/3 462/2/3 461/2/3
f 475/2/3 467/2/3 466/2/3
f 475/2/3 466/2/3 465/2/3
f 475/2/3 468/2/3 467/2/3
f 476/2/3 470/2/3 469/2/3
f 477/2/3 470/2/3 476/2/3
f 478/2/3 470/2/3 477/2/3
f 479/2/3 470/2/3 478/2/3
f 480/2/3 473/2/3 472/2/3
f 480/2/3 472/2/3 471/2/3
f 480/2/3 474/2/3 473/2/3
f 481/2/3 476/2/3 475/2/3
f 482/2/3 478/2/3 477/2/3
f 483/2/3 478/2/3 482/2/3
f 484/2/3 478/2/3 483/2/3
f 485/2/3 478/2/3 484/2/3
f 486/2/3 480/2/3 479/2/3
f 487/2/3 482/2/3 481/2/3
f 488/2/3 484/2/3 483/2/3
f 489/2/3 484/2/3 488/2/3
f 490/2/3 484/2/3 489/2/3
f 491/2/3 484/2/3 490/2/3
f 492/2/3 486/2/3 485/2/3
f 493/2/3 488/2/3 487/2/3
f 494/2/3 490/2/3 489/2/3
f 495/2/3 490/2/3 494/2/3
f 496/2/3 492/2/3 491/2/3
f 497/2/3 493/2/3 487/2/3
f 497/2/3 494/2/3 493/2/3
f 498/2/3 494/2/3 497/2/3
f 499/2/3 496/2/3 495/2/3
f 500/2/3 492/2/3 496/2/3
f 500/2/3 496/2/3 499/2/3
f 501/2/3 487/2/3 481/2/3
f 501/2/3 497/2/3 487/2/3
f 502/2/3 497/2/3 501/2/3
f 503/2/3 499/2/3 498/2/3
f 504/2/3 499/2/3 503/2/3
f 505/2/3 492/2/3 500/2/3
f 506/2/3 486/2/3 492/2/3
f 506/2/3 492/2/3 505/2/3
f 507/2/3 481/2/3 475/2/3
f 507/2/3 501/2/3 481/2/3
f 508/2/3 501/2/3 507/2/3
f 509/2/3 504/2/3 503/2/3
f 509/2/3 505/2/3 504/2/3
f 509/2/3 503/2/3 502/2/3
f 510/2/3 505/2/3 509/2/3
f 511/2/3 486/2/3 506/2/3
f 512/2/3 480/2/3 486/2/3
f 512/2/3 486/2/3 511/2/3
f 513/2/3 475/2/3 465/2/3
f 513/2/3 507/2/3 475/2/3
f 514/2/3 507/2/3 513/2/3
f 515/2/3 510/2/3 509/2/3
f 515/2/3 511/2/3 510/2/3
f 515/2/3 509/2/3 508/2/3
f 516/2/3 511/2/3 515/2/3
f 517/2/3 480/2/3 512/2/3
f 518/2/3 474/2/3 480/2/3
f 518/2/3 480/2/3 517/2/3
f 519/2/3 465/2/3 451/2/3
f 519/2/3 513/2/3 465/2/3
f 520/2/3 513/2/3 519/2/3
f 521/2/3 513/2/3 520/2/3
f 522/2/3 513/2/3 521/2/3
f 523/2/3 516/2/3 515/2/3
f 523/2/3 517/2/3 516/2/3
f 523/2/3 515/2/3 514/2/3
f 524/2/3 517/2/3 523/2/3
f 525/2/3 474/2/3 518/2/3
f 526/2/3 474/2/3 525/2/3
f 527/2/3 474/2/3 526/2/3
f 528/2/3 464/2/3 474/2/3
f 528/2/3 474/2/3 527/2/3
f 529/2/3 451/2/3 441/2/3
f 529/2/3 519/2/3 451/2/3
f 530/2/3 519/2/3 529/2/3
f 531/2/3 519/2/3 530/2/3
f 532/2/3 519/2/3 531/2/3
f 533/2/3 521/2/3 520/2/3
f 534/2/3 521/2/3 533/2/3
f 535/2/3 524/2/3 523/2/3
f 535/2/3 525/2/3 524/2/3
f 535/2/3 523/2/3 522/2/3
f 536/2/3 525/2/3 535/2/3
f 537/2/3 527/2/3 526/2/3
f 538/2/3 527/2/3 537/2/3
f 539/2/3 464/2/3 528/2/3
f 540/2/3 464/2/3 539/2/3
f 541/2/3 464/2/3 540/2/3
f 542/2/3 442/2/3 464/2/3
f 542/2/3 464/2/3 541/2/3
f 543/2/3 529/2/3 441/2/3
f 544/2/3 531/2/3 530/2/3
f 545/2/3 531/2/3 544/2/3
f 546/2/3 538/2/3 537/2/3
f 546/2/3 534/2/3 533/2/3
f 546/2/3 533/2/3 532/2/3
f 546/2/3 536/2/3 535/2/3
f 546/2/3 537/2/3 536/2/3
f 546/2/3 539/2/3 538/2/3
f 546/2/3 535/2/3 534/2/3
f 547/2/3 539/2/3 546/2/3
f 548/2/3 541/2/3 540/2/3
f 549/2/3 541/2/3 548/2/3
f 550/2/3 442/2/3 542/2/3
f 551/2/3 545/2/3 544/2/3
f 551/2/3 550/2/3 549/2/3
f 551/2/3 544/2/3 543/2/3
f 551/2/3 547/2/3 546/2/3
f 551/2/3 548/2/3 547/2/3
f 551/2/3 549/2/3 548/2/3
f 551/2/3 546/2/3 545/2/3
f 551/2/3 543/2/3 441/2/3
f 552/2/3 442/2/3 550/2/3
f 552/2/3 550/2/3 551/2/3
f 553/2/4 554/2/4 555/2/4
f 555/2/4 554/2/4 556/2/4
f 560/2/5 558/2/5 557/2/5
f 561/2/5 558/2/5 560/2/5
f 563/2/5 560/2/5 559/2/5
f 563/2/5 562/2/5 561/2/5
f 563/2/5 561/2/5 560/2/5
f 564/2/5 562/2/5 563/2/5
f 569/2/5 566/2/5 565/2/5
f 570/2/5 566/2/5 569/2/5
f 571/2/5 568/2/5 567/2/5
f 572/2/5 568/2/5 571/2/5
f 577/1/5 574/1/5 573/1/5
f 578/1/5 574/1/5 577/1/5
f 579/1/5 576/1/5 575/1/5
f 580/1/5 576/1/5 579/1/5
f 585/1/5 582/1/5 581/1/5
f 586/1/5 582/1/5 585/1/5
f 587/1/5 584/1/5 583/1/5
f 588/1/5 584/1/5 587/1/5
f 593/1/5 590/1/5 589/1/5
f 594/1/5 590/1/5 593/1/5
f 595/1/5 592/1/5 591/1/5
f 596/1/5 592/1/5 595/1/5
f 601/1/5 598/1/5 597/1/5
f 602/1/5 598/1/5 601/1/5
f 603/1/5 600/1/5 599/1/5
f 604/1/5 600/1/5 603/1/5
f 609/1/5 606/1/5 605/1/5
f 610/1/5 606/1/5 609/1/5
f 611/1/5 608/1/5 607/1/5
f 612/1/5 608/1/5 611/1/5
f 617/1/5 614/1/5 613/1/5
f 618/1/5 614/1/5 617/1/5
f 619/1/5 616/1/5 615/1/5
f 620/1/5 616/1/5 619/1/5
f 625/1/5 622/1/5 621/1/5
f 626/1/5 622/1/5 625/1/5
f 627/1/5 624/1/5 623/1/5
f 628/1/5 624/1/5 627/1/5
f 633/1/5 630/1/5 629/1/5
f 634/1/5 630/1/5 633/1/5
f 635/1/5 632/1/5 631/1/5
f 636/1/5 632/1/5 635/1/5
f 639/1/5 638/1/5 637/1/5
f 640/1/5 638/1/5 639/1/5
f 645/1/5 642/1/5 641/1/5
f 646/1/5 642/1/5 645/1/5
f 647/1/5 644/1/5 643/1/5
f 648/1/5 644/1/5 647/1/5
f 653/1/5 650/1/5 649/1/5
f 654/1/5 650/1/5 653/1/5
f 655/1/5 652/1/5 651/1/5
f 656/1/5 652/1/5 655/1/5
f 661/1/5 658/1/5 657/1/5
f 662/1/5 658/1/5 661/1/5
f 663/1/5 660/1/5 659/1/5
f 664/1/5 660/1/5 663/1/5
f 669/1/5 666/1/5 665/1/5
f 670/1/5 666/1/5 669/1/5
f 671/1/5 668/1/5 667/1/5
f 672/1/5 668/1/5 671/1/5
f 677/1/5 674/1/5 673/1/5
f 678/1/5 674/1/5 677/1/5
f 679/1/5 676/1/5 675/1/5
f 680/1/5 676/1/5 679/1/5
f 685/1/5 682/1/5 681/1/5
f 686/1/5 682/1/5 685/1/5
f 687/1/5 684/1/5 683/1/5
f 688/1/5 684/1/5 687/1/5
f 693/1/5 690/1/5 689/1/5
f 694/1/5 690/1/5 693/1/5
f 695/1/5 692/1/5 691/1/5
f 696/1/5 692/1/5 695/1/5
f 701/1/5 698/1/5 697/1/5
f 702/1/5 698/1/5 701/1/5
f 703/1/5 700/1/5 699/1/5
f 704/1/5 700/1/5 703/1/5
f 707/2/5 706/2/5 705/2/5
f 708/2/5 706/2/5 707/2/5
f 709/2/6 710/2/6 711/2/6
f 711/2/6 710/2/6 712/2/6
f 713/1/6 714/1/6 717/1/6
f 717/1/6 714/1/6 718/1/6
f 715/1/6 716/1/6 719/1/6
f 719/1/6 716/1/6 720/1/6
f 721/1/6 722/1/6 725/1/6
f 725/1/6 722/1/6 726/1/6
f 723/1/6 724/1/6 727/1/6
f 727/1/6 724/1/6 728/1/6
f 729/1/6 730/1/6 733/1/6
f 733/1/6 730/1/6 734/1/6
f 731/1/6 732/1/6 735/1/6
f 735/1/6 732/1/6 736/1/6
f 737/1/6 738/1/6 741/1/6
f 741/1/6 738/1/6 742/1/6
f 739/1/6 740/1/6 743/1/6
f 743/1/6 740/1/6 744/1/6
f 745/1/6 746/1/6 749/1/6
f 749/1/6 746/1/6 750/1/6
f 747/1/6 748/1/6 751/1/6
f 751/1/6 748/1/6 752/1/6
f 753/1/6 754/1/6 757/1/6
f 757/1/6 754/1/6 758/1/6
f 755/1/6 756/1/6 759/1/6
f 759/1/6 756/1/6 760/1/6
f 761/1/6 762/1/6 765/1/6
f 765/1/6 762/1/6 766/1/6
f 763/1/6 764/1/6 767/1/6
f 767/1/6 764/1/6 768/1/6
f 769/1/6 770/1/6 773/1/6
f 773/1/6 770/1/6 774/1/6
f 771/1/6 772/1/6 775/1/6
f 775/1/6 772/1/6 776/1/6
f 777/1/6 778/1/6 779/1/6
f 779/1/6 778/1/6 780/1/6
f 781/1/6 782/1/6 785/1/6
f 785/1/6 782/1/6 786/1/6
f 783/1/6 784/1/6 787/1/6
f 787/1/6 784/1/6 788/1/6
f 789/1/6 790/1/6 793/1/6
f 793/1/6 790/1/6 794/1/6
f 791/1/6 792/1/6 795/1/6
f 795/1/6 792/1/6 796/1/6
f 797/1/6 798/1/6 801/1/6
f 801/1/6 798/1/6 802/1/6
f 799/1/6 800/1/6 803/1/6
f 803/1/6 800/1/6 804/1/6
f 805/1/6 806/1/6 809/1/6
f 809/1/6 806/1/6 810/1/6
f 807/1/6 808/1/6 811/1/6
f 811/1/6 808/1/6 812/1/6
f 813/1/6 814/1/6 817/1/6
f 817/1/6 814/1/6 818/1/6
f 815/1/6 816/1/6 819/1/6
f 819/1/6 816/1/6 820/1/6
f 821/1/6 822/1/6 825/1/6
f 825/1/6 822/1/6 826/1/6
f 823/1/6 824/1/6 827/1/6
f 827/1/6 824/1/6 828/1/6
f 829/1/6 830/1/6 833/1/6
f 833/1/6 830/1/6 834/1/6
f 831/1/6 832/1/6 835/1/6
f 835/1/6 832/1/6 836/1/6
f 837/1/6 838/1/6 841/1/6
f 841/1/6 838/1/6 842/1/6
f 839/1/6 840/1/6 843/1/6
f 843/1/6 840/1/6 844/1/6
f 845/2/6 846/2/6 849/2/6
f 849/2/6 846/2/6 850/2/6
f 847/2/6 848/2/6 851/2/6
f 851/2/6 848/2/6 852/2/6
f 853/2/6 854/2/6 856/2/6
f 856/2/6 854/2/6 857/2/6
f 855/2/6 856/2/6 859/2/6
f 857/2/6 858/2/6 859/2/6
f 856/2/6 857/2/6 859/2/6
f 859/2/6 858/2/6 860/2/6
