# MagicaVoxel @ Ephtracy

# group
g bagpipes

# material
mtllib bagpipes.mtl
usemtl palette

# normals
vn -1 0 0
vn 1 0 0
vn 0 0 1
vn 0 0 -1
vn 0 -1 0
vn 0 1 0

# texcoords
vt 0.0332031 0.5
vt 0.0644531 0.5
vt 0.677734 0.5
vt 0.982422 0.5
vt 0.986328 0.5
vt 0.990234 0.5
vt 0.994141 0.5

# verts
v -2.5 0 0.5
v -2.5 0 -2.5
v -2.5 1 0.5
v -2.5 1 -2.5
v -2.5 7 1.5
v -2.5 7 0.5
v -2.5 7 -2.5
v -2.5 7 -3.5
v -2.5 8 2.5
v -2.5 8 1.5
v -2.5 8 0.5
v -2.5 8 -2.5
v -2.5 8 -3.5
v -2.5 8 -4.5
v -2.5 9 2.5
v -2.5 9 1.5
v -2.5 9 0.5
v -2.5 9 -2.5
v -2.5 9 -3.5
v -2.5 9 -4.5
v -2.5 10 2.5
v -2.5 10 1.5
v -2.5 10 -3.5
v -2.5 10 -4.5
v -1.5 0 1.5
v -1.5 0 0.5
v -1.5 0 -2.5
v -1.5 0 -3.5
v -1.5 1 1.5
v -1.5 1 0.5
v -1.5 1 -2.5
v -1.5 1 -3.5
v -1.5 3 0.5
v -1.5 3 -0.5
v -1.5 3 -1.5
v -1.5 3 -2.5
v -1.5 4 -0.5
v -1.5 4 -1.5
v -1.5 6 0.5
v -1.5 6 -2.5
v -1.5 7 0.5
v -1.5 7 -2.5
v -0.5 3 0.5
v -0.5 3 -0.5
v -0.5 3 -1.5
v -0.5 3 -2.5
v -0.5 4 0.5
v -0.5 4 -0.5
v -0.5 4 -1.5
v -0.5 4 -2.5
v -0.5 6 -0.5
v -0.5 6 -1.5
v -0.5 7 1.5
v -0.5 7 0.5
v -0.5 7 -2.5
v -0.5 7 -3.5
v -0.5 8 2.5
v -0.5 8 1.5
v -0.5 8 0.5
v -0.5 8 -2.5
v -0.5 8 -3.5
v -0.5 8 -4.5
v -0.5 9 2.5
v -0.5 9 1.5
v -0.5 9 -3.5
v -0.5 9 -4.5
v -0.5 10 2.5
v -0.5 10 1.5
v -0.5 10 -3.5
v -0.5 10 -4.5
v 1.5 7 1.5
v 1.5 7 0.5
v 1.5 7 -2.5
v 1.5 7 -3.5
v 1.5 8 2.5
v 1.5 8 1.5
v 1.5 8 0.5
v 1.5 8 -2.5
v 1.5 8 -3.5
v 1.5 8 -4.5
v 1.5 9 2.5
v 1.5 9 1.5
v 1.5 9 -3.5
v 1.5 9 -4.5
v 1.5 10 2.5
v 1.5 10 1.5
v 1.5 10 -3.5
v 1.5 10 -4.5
v -1.5 7 1.5
v -1.5 7 0.5
v -1.5 7 -2.5
v -1.5 7 -3.5
v -1.5 8 2.5
v -1.5 8 1.5
v -1.5 8 0.5
v -1.5 8 -2.5
v -1.5 8 -3.5
v -1.5 8 -4.5
v -1.5 9 2.5
v -1.5 9 1.5
v -1.5 9 -3.5
v -1.5 9 -4.5
v -1.5 10 2.5
v -1.5 10 1.5
v -1.5 10 -3.5
v -1.5 10 -4.5
v 0.5 3 0.5
v 0.5 3 -0.5
v 0.5 3 -1.5
v 0.5 3 -2.5
v 0.5 4 0.5
v 0.5 4 -0.5
v 0.5 4 -1.5
v 0.5 4 -2.5
v 0.5 6 -0.5
v 0.5 6 -1.5
v 0.5 7 1.5
v 0.5 7 0.5
v 0.5 7 -2.5
v 0.5 7 -3.5
v 0.5 8 2.5
v 0.5 8 1.5
v 0.5 8 0.5
v 0.5 8 -2.5
v 0.5 8 -3.5
v 0.5 8 -4.5
v 0.5 9 2.5
v 0.5 9 1.5
v 0.5 9 -3.5
v 0.5 9 -4.5
v 0.5 10 2.5
v 0.5 10 1.5
v 0.5 10 -3.5
v 0.5 10 -4.5
v 1.5 0 1.5
v 1.5 0 0.5
v 1.5 0 -2.5
v 1.5 0 -3.5
v 1.5 1 1.5
v 1.5 1 0.5
v 1.5 1 -2.5
v 1.5 1 -3.5
v 1.5 3 0.5
v 1.5 3 -0.5
v 1.5 3 -1.5
v 1.5 3 -2.5
v 1.5 4 -0.5
v 1.5 4 -1.5
v 1.5 6 0.5
v 1.5 6 -2.5
v 1.5 7 0.5
v 1.5 7 -2.5
v 2.5 0 0.5
v 2.5 0 -2.5
v 2.5 1 0.5
v 2.5 1 -2.5
v 2.5 7 1.5
v 2.5 7 0.5
v 2.5 7 -0.5
v 2.5 7 -1.5
v 2.5 7 -2.5
v 2.5 7 -3.5
v 2.5 8 2.5
v 2.5 8 1.5
v 2.5 8 0.5
v 2.5 8 -0.5
v 2.5 8 -1.5
v 2.5 8 -2.5
v 2.5 8 -3.5
v 2.5 8 -4.5
v 2.5 9 2.5
v 2.5 9 1.5
v 2.5 9 0.5
v 2.5 9 -2.5
v 2.5 9 -3.5
v 2.5 9 -4.5
v 2.5 10 2.5
v 2.5 10 1.5
v 2.5 10 -3.5
v 2.5 10 -4.5
v 4.5 7 -0.5
v 4.5 7 -1.5
v 4.5 8 -0.5
v 4.5 8 -1.5
v -2.5 8 2.5
v -2.5 9 2.5
v -2.5 10 2.5
v -1.5 8 2.5
v -1.5 9 2.5
v -1.5 10 2.5
v -0.5 8 2.5
v -0.5 9 2.5
v -0.5 10 2.5
v 0.5 8 2.5
v 0.5 9 2.5
v 0.5 10 2.5
v 1.5 8 2.5
v 1.5 9 2.5
v 1.5 10 2.5
v 2.5 8 2.5
v 2.5 9 2.5
v 2.5 10 2.5
v -2.5 7 1.5
v -2.5 8 1.5
v -1.5 0 1.5
v -1.5 1 1.5
v -1.5 7 1.5
v -1.5 8 1.5
v -0.5 7 1.5
v -0.5 8 1.5
v 0.5 7 1.5
v 0.5 8 1.5
v 1.5 0 1.5
v 1.5 1 1.5
v 1.5 7 1.5
v 1.5 8 1.5
v 2.5 7 1.5
v 2.5 8 1.5
v -2.5 0 0.5
v -2.5 1 0.5
v -2.5 8 0.5
v -2.5 9 0.5
v -1.5 0 0.5
v -1.5 1 0.5
v -1.5 3 0.5
v -1.5 6 0.5
v -1.5 7 0.5
v -1.5 8 0.5
v -0.5 3 0.5
v -0.5 4 0.5
v -0.5 7 0.5
v -0.5 8 0.5
v 0.5 3 0.5
v 0.5 4 0.5
v 0.5 6 0.5
v 0.5 7 0.5
v 0.5 8 0.5
v 1.5 0 0.5
v 1.5 1 0.5
v 1.5 3 0.5
v 1.5 6 0.5
v 1.5 7 0.5
v 1.5 8 0.5
v 2.5 0 0.5
v 2.5 1 0.5
v 2.5 8 0.5
v 2.5 9 0.5
v -1.5 3 -0.5
v -1.5 4 -0.5
v -0.5 3 -0.5
v -0.5 4 -0.5
v -0.5 6 -0.5
v 0.5 3 -0.5
v 0.5 4 -0.5
v 0.5 6 -0.5
v 1.5 3 -0.5
v 1.5 4 -0.5
v 2.5 7 -0.5
v 2.5 8 -0.5
v 3.5 7 -0.5
v 3.5 8 -0.5
v 4.5 7 -0.5
v 4.5 8 -0.5
v -2.5 8 -3.5
v -2.5 9 -3.5
v -2.5 10 -3.5
v -1.5 8 -3.5
v -1.5 9 -3.5
v -1.5 10 -3.5
v -0.5 8 -3.5
v -0.5 9 -3.5
v -0.5 10 -3.5
v 0.5 8 -3.5
v 0.5 9 -3.5
v 0.5 10 -3.5
v 1.5 8 -3.5
v 1.5 9 -3.5
v 1.5 10 -3.5
v 2.5 8 -3.5
v 2.5 9 -3.5
v 2.5 10 -3.5
v -2.5 8 1.5
v -2.5 9 1.5
v -2.5 10 1.5
v -1.5 8 1.5
v -1.5 9 1.5
v -1.5 10 1.5
v -0.5 8 1.5
v -0.5 9 1.5
v -0.5 10 1.5
v 0.5 8 1.5
v 0.5 9 1.5
v 0.5 10 1.5
v 1.5 8 1.5
v 1.5 9 1.5
v 1.5 10 1.5
v 2.5 8 1.5
v 2.5 9 1.5
v 2.5 10 1.5
v -1.5 3 -1.5
v -1.5 4 -1.5
v -0.5 3 -1.5
v -0.5 4 -1.5
v -0.5 6 -1.5
v 0.5 3 -1.5
v 0.5 4 -1.5
v 0.5 6 -1.5
v 1.5 3 -1.5
v 1.5 4 -1.5
v 2.5 7 -1.5
v 2.5 8 -1.5
v 3.5 7 -1.5
v 3.5 8 -1.5
v 4.5 7 -1.5
v 4.5 8 -1.5
v -2.5 0 -2.5
v -2.5 1 -2.5
v -2.5 8 -2.5
v -2.5 9 -2.5
v -1.5 0 -2.5
v -1.5 1 -2.5
v -1.5 3 -2.5
v -1.5 6 -2.5
v -1.5 7 -2.5
v -1.5 8 -2.5
v -0.5 3 -2.5
v -0.5 4 -2.5
v -0.5 7 -2.5
v -0.5 8 -2.5
v 0.5 3 -2.5
v 0.5 4 -2.5
v 0.5 6 -2.5
v 0.5 7 -2.5
v 0.5 8 -2.5
v 1.5 0 -2.5
v 1.5 1 -2.5
v 1.5 3 -2.5
v 1.5 6 -2.5
v 1.5 7 -2.5
v 1.5 8 -2.5
v 2.5 0 -2.5
v 2.5 1 -2.5
v 2.5 8 -2.5
v 2.5 9 -2.5
v -2.5 7 -3.5
v -2.5 8 -3.5
v -1.5 0 -3.5
v -1.5 1 -3.5
v -1.5 7 -3.5
v -1.5 8 -3.5
v -0.5 7 -3.5
v -0.5 8 -3.5
v 0.5 7 -3.5
v 0.5 8 -3.5
v 1.5 0 -3.5
v 1.5 1 -3.5
v 1.5 7 -3.5
v 1.5 8 -3.5
v 2.5 7 -3.5
v 2.5 8 -3.5
v -2.5 8 -4.5
v -2.5 9 -4.5
v -2.5 10 -4.5
v -1.5 8 -4.5
v -1.5 9 -4.5
v -1.5 10 -4.5
v -0.5 8 -4.5
v -0.5 9 -4.5
v -0.5 10 -4.5
v 0.5 8 -4.5
v 0.5 9 -4.5
v 0.5 10 -4.5
v 1.5 8 -4.5
v 1.5 9 -4.5
v 1.5 10 -4.5
v 2.5 8 -4.5
v 2.5 9 -4.5
v 2.5 10 -4.5
v -1.5 0 1.5
v 1.5 0 1.5
v -2.5 0 0.5
v -1.5 0 0.5
v 1.5 0 0.5
v 2.5 0 0.5
v -2.5 0 -2.5
v -1.5 0 -2.5
v 1.5 0 -2.5
v 2.5 0 -2.5
v -1.5 0 -3.5
v 1.5 0 -3.5
v -1.5 6 0.5
v 0.5 6 0.5
v 1.5 6 0.5
v -0.5 6 -0.5
v 0.5 6 -0.5
v -0.5 6 -1.5
v 0.5 6 -1.5
v -1.5 6 -2.5
v 0.5 6 -2.5
v 1.5 6 -2.5
v -2.5 7 1.5
v -1.5 7 1.5
v -0.5 7 1.5
v 0.5 7 1.5
v 1.5 7 1.5
v 2.5 7 1.5
v -2.5 7 0.5
v -1.5 7 0.5
v -0.5 7 0.5
v 0.5 7 0.5
v 1.5 7 0.5
v 2.5 7 0.5
v 2.5 7 -0.5
v 3.5 7 -0.5
v 4.5 7 -0.5
v 2.5 7 -1.5
v 3.5 7 -1.5
v 4.5 7 -1.5
v -2.5 7 -2.5
v -1.5 7 -2.5
v -0.5 7 -2.5
v 0.5 7 -2.5
v 1.5 7 -2.5
v 2.5 7 -2.5
v -2.5 7 -3.5
v -1.5 7 -3.5
v -0.5 7 -3.5
v 0.5 7 -3.5
v 1.5 7 -3.5
v 2.5 7 -3.5
v -2.5 8 2.5
v -1.5 8 2.5
v -0.5 8 2.5
v 0.5 8 2.5
v 1.5 8 2.5
v 2.5 8 2.5
v -2.5 8 1.5
v -1.5 8 1.5
v -0.5 8 1.5
v 0.5 8 1.5
v 1.5 8 1.5
v 2.5 8 1.5
v -2.5 8 -3.5
v -1.5 8 -3.5
v -0.5 8 -3.5
v 0.5 8 -3.5
v 1.5 8 -3.5
v 2.5 8 -3.5
v -2.5 8 -4.5
v -1.5 8 -4.5
v -0.5 8 -4.5
v 0.5 8 -4.5
v 1.5 8 -4.5
v 2.5 8 -4.5
v -1.5 1 1.5
v 1.5 1 1.5
v -2.5 1 0.5
v -1.5 1 0.5
v 1.5 1 0.5
v 2.5 1 0.5
v -2.5 1 -2.5
v -1.5 1 -2.5
v 1.5 1 -2.5
v 2.5 1 -2.5
v -1.5 1 -3.5
v 1.5 1 -3.5
v -1.5 3 0.5
v -0.5 3 0.5
v 0.5 3 0.5
v 1.5 3 0.5
v -1.5 3 -0.5
v -0.5 3 -0.5
v 0.5 3 -0.5
v 1.5 3 -0.5
v -1.5 3 -1.5
v -0.5 3 -1.5
v 0.5 3 -1.5
v 1.5 3 -1.5
v -1.5 3 -2.5
v -0.5 3 -2.5
v 0.5 3 -2.5
v 1.5 3 -2.5
v -0.5 4 0.5
v 0.5 4 0.5
v -1.5 4 -0.5
v -0.5 4 -0.5
v 0.5 4 -0.5
v 1.5 4 -0.5
v -1.5 4 -1.5
v -0.5 4 -1.5
v 0.5 4 -1.5
v 1.5 4 -1.5
v -0.5 4 -2.5
v 0.5 4 -2.5
v -2.5 8 1.5
v -1.5 8 1.5
v -0.5 8 1.5
v 0.5 8 1.5
v 1.5 8 1.5
v 2.5 8 1.5
v -2.5 8 0.5
v -1.5 8 0.5
v -0.5 8 0.5
v 0.5 8 0.5
v 1.5 8 0.5
v 2.5 8 0.5
v 2.5 8 -0.5
v 3.5 8 -0.5
v 4.5 8 -0.5
v 2.5 8 -1.5
v 3.5 8 -1.5
v 4.5 8 -1.5
v -2.5 8 -2.5
v -1.5 8 -2.5
v -0.5 8 -2.5
v 0.5 8 -2.5
v 1.5 8 -2.5
v 2.5 8 -2.5
v -2.5 8 -3.5
v -1.5 8 -3.5
v -0.5 8 -3.5
v 0.5 8 -3.5
v 1.5 8 -3.5
v 2.5 8 -3.5
v -2.5 9 0.5
v 2.5 9 0.5
v -2.5 9 -2.5
v 2.5 9 -2.5
v -2.5 10 2.5
v -1.5 10 2.5
v -0.5 10 2.5
v 0.5 10 2.5
v 1.5 10 2.5
v 2.5 10 2.5
v -2.5 10 1.5
v -1.5 10 1.5
v -0.5 10 1.5
v 0.5 10 1.5
v 1.5 10 1.5
v 2.5 10 1.5
v -2.5 10 -3.5
v -1.5 10 -3.5
v -0.5 10 -3.5
v 0.5 10 -3.5
v 1.5 10 -3.5
v 2.5 10 -3.5
v -2.5 10 -4.5
v -1.5 10 -4.5
v -0.5 10 -4.5
v 0.5 10 -4.5
v 1.5 10 -4.5
v 2.5 10 -4.5

# faces
f 3/7/1 2/7/1 1/7/1
f 4/7/1 2/7/1 3/7/1
f 10/4/1 6/4/1 5/4/1
f 11/3/1 7/3/1 6/3/1
f 11/4/1 6/4/1 10/4/1
f 12/4/1 8/4/1 7/4/1
f 12/3/1 7/3/1 11/3/1
f 13/4/1 8/4/1 12/4/1
f 15/4/1 10/4/1 9/4/1
f 16/4/1 10/4/1 15/4/1
f 17/3/1 12/3/1 11/3/1
f 18/3/1 12/3/1 17/3/1
f 19/4/1 14/4/1 13/4/1
f 20/4/1 14/4/1 19/4/1
f 21/7/1 16/7/1 15/7/1
f 22/7/1 16/7/1 21/7/1
f 23/7/1 20/7/1 19/7/1
f 24/7/1 20/7/1 23/7/1
f 29/7/1 26/7/1 25/7/1
f 30/7/1 26/7/1 29/7/1
f 31/7/1 28/7/1 27/7/1
f 32/7/1 28/7/1 31/7/1
f 33/6/1 31/6/1 30/6/1
f 34/6/1 31/6/1 33/6/1
f 35/6/1 31/6/1 34/6/1
f 36/6/1 31/6/1 35/6/1
f 37/6/1 35/6/1 34/6/1
f 38/6/1 35/6/1 37/6/1
f 41/3/1 40/3/1 39/3/1
f 42/3/1 40/3/1 41/3/1
f 47/6/1 44/6/1 43/6/1
f 48/6/1 44/6/1 47/6/1
f 49/6/1 46/6/1 45/6/1
f 50/6/1 46/6/1 49/6/1
f 51/7/1 49/7/1 48/7/1
f 52/7/1 49/7/1 51/7/1
f 58/4/1 54/4/1 53/4/1
f 59/4/1 54/4/1 58/4/1
f 60/4/1 56/4/1 55/4/1
f 61/4/1 56/4/1 60/4/1
f 63/4/1 58/4/1 57/4/1
f 64/4/1 58/4/1 63/4/1
f 65/4/1 62/4/1 61/4/1
f 66/4/1 62/4/1 65/4/1
f 67/7/1 64/7/1 63/7/1
f 68/7/1 64/7/1 67/7/1
f 69/7/1 66/7/1 65/7/1
f 70/7/1 66/7/1 69/7/1
f 76/4/1 72/4/1 71/4/1
f 77/4/1 72/4/1 76/4/1
f 78/4/1 74/4/1 73/4/1
f 79/4/1 74/4/1 78/4/1
f 81/4/1 76/4/1 75/4/1
f 82/4/1 76/4/1 81/4/1
f 83/4/1 80/4/1 79/4/1
f 84/4/1 80/4/1 83/4/1
f 85/7/1 82/7/1 81/7/1
f 86/7/1 82/7/1 85/7/1
f 87/7/1 84/7/1 83/7/1
f 88/7/1 84/7/1 87/7/1
f 89/4/2 90/4/2 94/4/2
f 94/4/2 90/4/2 95/4/2
f 91/4/2 92/4/2 96/4/2
f 96/4/2 92/4/2 97/4/2
f 93/4/2 94/4/2 99/4/2
f 99/4/2 94/4/2 100/4/2
f 97/4/2 98/4/2 101/4/2
f 101/4/2 98/4/2 102/4/2
f 99/7/2 100/7/2 103/7/2
f 103/7/2 100/7/2 104/7/2
f 101/7/2 102/7/2 105/7/2
f 105/7/2 102/7/2 106/7/2
f 107/6/2 108/6/2 111/6/2
f 111/6/2 108/6/2 112/6/2
f 109/6/2 110/6/2 113/6/2
f 113/6/2 110/6/2 114/6/2
f 112/7/2 113/7/2 115/7/2
f 115/7/2 113/7/2 116/7/2
f 117/4/2 118/4/2 122/4/2
f 122/4/2 118/4/2 123/4/2
f 119/4/2 120/4/2 124/4/2
f 124/4/2 120/4/2 125/4/2
f 121/4/2 122/4/2 127/4/2
f 127/4/2 122/4/2 128/4/2
f 125/4/2 126/4/2 129/4/2
f 129/4/2 126/4/2 130/4/2
f 127/7/2 128/7/2 131/7/2
f 131/7/2 128/7/2 132/7/2
f 129/7/2 130/7/2 133/7/2
f 133/7/2 130/7/2 134/7/2
f 135/7/2 136/7/2 139/7/2
f 139/7/2 136/7/2 140/7/2
f 137/7/2 138/7/2 141/7/2
f 141/7/2 138/7/2 142/7/2
f 140/6/2 141/6/2 143/6/2
f 143/6/2 141/6/2 144/6/2
f 144/6/2 141/6/2 145/6/2
f 145/6/2 141/6/2 146/6/2
f 144/6/2 145/6/2 147/6/2
f 147/6/2 145/6/2 148/6/2
f 149/1/2 150/1/2 151/1/2
f 151/1/2 150/1/2 152/1/2
f 153/7/2 154/7/2 155/7/2
f 155/7/2 154/7/2 156/7/2
f 157/4/2 158/4/2 164/4/2
f 158/3/2 159/3/2 165/3/2
f 164/4/2 158/4/2 165/4/2
f 165/3/2 159/3/2 166/3/2
f 160/3/2 161/3/2 167/3/2
f 161/4/2 162/4/2 168/4/2
f 167/3/2 161/3/2 168/3/2
f 168/4/2 162/4/2 169/4/2
f 163/4/2 164/4/2 171/4/2
f 171/4/2 164/4/2 172/4/2
f 165/3/2 166/3/2 173/3/2
f 166/3/2 167/3/2 173/3/2
f 167/3/2 168/3/2 173/3/2
f 173/3/2 168/3/2 174/3/2
f 169/4/2 170/4/2 175/4/2
f 175/4/2 170/4/2 176/4/2
f 171/7/2 172/7/2 177/7/2
f 177/7/2 172/7/2 178/7/2
f 175/7/2 176/7/2 179/7/2
f 179/7/2 176/7/2 180/7/2
f 181/7/2 182/7/2 183/7/2
f 183/7/2 182/7/2 184/7/2
f 188/4/3 186/4/3 185/4/3
f 189/7/3 187/7/3 186/7/3
f 189/4/3 186/4/3 188/4/3
f 190/7/3 187/7/3 189/7/3
f 194/4/3 192/4/3 191/4/3
f 195/7/3 193/7/3 192/7/3
f 195/4/3 192/4/3 194/4/3
f 196/7/3 193/7/3 195/7/3
f 200/4/3 198/4/3 197/4/3
f 201/7/3 199/7/3 198/7/3
f 201/4/3 198/4/3 200/4/3
f 202/7/3 199/7/3 201/7/3
f 207/4/3 204/4/3 203/4/3
f 208/4/3 204/4/3 207/4/3
f 211/4/3 210/4/3 209/4/3
f 212/4/3 210/4/3 211/4/3
f 213/7/3 206/7/3 205/7/3
f 214/7/3 206/7/3 213/7/3
f 217/4/3 216/4/3 215/4/3
f 218/4/3 216/4/3 217/4/3
f 223/7/3 220/7/3 219/7/3
f 224/7/3 220/7/3 223/7/3
f 228/3/3 222/3/3 221/3/3
f 229/6/3 225/6/3 224/6/3
f 231/3/3 227/3/3 226/3/3
f 231/3/3 228/3/3 227/3/3
f 232/3/3 222/3/3 228/3/3
f 232/3/3 228/3/3 231/3/3
f 233/6/3 230/6/3 229/6/3
f 233/6/3 229/6/3 224/6/3
f 234/6/3 230/6/3 233/6/3
f 235/3/3 231/3/3 226/3/3
f 236/3/3 231/3/3 235/3/3
f 237/3/3 222/3/3 232/3/3
f 239/6/3 233/6/3 224/6/3
f 240/6/3 233/6/3 239/6/3
f 241/1/3 236/1/3 235/1/3
f 242/3/3 237/3/3 236/3/3
f 242/1/3 236/1/3 241/1/3
f 243/3/3 222/3/3 237/3/3
f 243/3/3 237/3/3 242/3/3
f 244/7/3 239/7/3 238/7/3
f 245/7/3 239/7/3 244/7/3
f 246/3/3 222/3/3 243/3/3
f 247/3/3 222/3/3 246/3/3
f 250/6/3 249/6/3 248/6/3
f 251/6/3 249/6/3 250/6/3
f 254/7/3 252/7/3 251/7/3
f 255/7/3 252/7/3 254/7/3
f 256/6/3 254/6/3 253/6/3
f 257/6/3 254/6/3 256/6/3
f 260/2/3 259/2/3 258/2/3
f 261/2/3 259/2/3 260/2/3
f 262/7/3 261/7/3 260/7/3
f 263/7/3 261/7/3 262/7/3
f 267/4/3 265/4/3 264/4/3
f 268/7/3 266/7/3 265/7/3
f 268/4/3 265/4/3 267/4/3
f 269/7/3 266/7/3 268/7/3
f 273/4/3 271/4/3 270/4/3
f 274/7/3 272/7/3 271/7/3
f 274/4/3 271/4/3 273/4/3
f 275/7/3 272/7/3 274/7/3
f 279/4/3 277/4/3 276/4/3
f 280/7/3 278/7/3 277/7/3
f 280/4/3 277/4/3 279/4/3
f 281/7/3 278/7/3 280/7/3
f 282/4/4 283/4/4 285/4/4
f 283/7/4 284/7/4 286/7/4
f 285/4/4 283/4/4 286/4/4
f 286/7/4 284/7/4 287/7/4
f 288/4/4 289/4/4 291/4/4
f 289/7/4 290/7/4 292/7/4
f 291/4/4 289/4/4 292/4/4
f 292/7/4 290/7/4 293/7/4
f 294/4/4 295/4/4 297/4/4
f 295/7/4 296/7/4 298/7/4
f 297/4/4 295/4/4 298/4/4
f 298/7/4 296/7/4 299/7/4
f 300/6/4 301/6/4 302/6/4
f 302/6/4 301/6/4 303/6/4
f 303/7/4 304/7/4 306/7/4
f 306/7/4 304/7/4 307/7/4
f 305/6/4 306/6/4 308/6/4
f 308/6/4 306/6/4 309/6/4
f 310/2/4 311/2/4 312/2/4
f 312/2/4 311/2/4 313/2/4
f 312/7/4 313/7/4 314/7/4
f 314/7/4 313/7/4 315/7/4
f 316/7/4 317/7/4 320/7/4
f 320/7/4 317/7/4 321/7/4
f 318/3/4 319/3/4 325/3/4
f 321/6/4 322/6/4 326/6/4
f 323/3/4 324/3/4 328/3/4
f 324/3/4 325/3/4 328/3/4
f 325/3/4 319/3/4 329/3/4
f 328/3/4 325/3/4 329/3/4
f 326/6/4 327/6/4 330/6/4
f 321/6/4 326/6/4 330/6/4
f 330/6/4 327/6/4 331/6/4
f 323/3/4 328/3/4 332/3/4
f 332/3/4 328/3/4 333/3/4
f 329/3/4 319/3/4 334/3/4
f 321/6/4 330/6/4 336/6/4
f 336/6/4 330/6/4 337/6/4
f 332/1/4 333/1/4 338/1/4
f 333/3/4 334/3/4 339/3/4
f 338/1/4 333/1/4 339/1/4
f 334/3/4 319/3/4 340/3/4
f 339/3/4 334/3/4 340/3/4
f 335/7/4 336/7/4 341/7/4
f 341/7/4 336/7/4 342/7/4
f 340/3/4 319/3/4 343/3/4
f 343/3/4 319/3/4 344/3/4
f 345/4/4 346/4/4 349/4/4
f 349/4/4 346/4/4 350/4/4
f 351/4/4 352/4/4 353/4/4
f 353/4/4 352/4/4 354/4/4
f 347/7/4 348/7/4 355/7/4
f 355/7/4 348/7/4 356/7/4
f 357/4/4 358/4/4 359/4/4
f 359/4/4 358/4/4 360/4/4
f 361/4/4 362/4/4 364/4/4
f 362/7/4 363/7/4 365/7/4
f 364/4/4 362/4/4 365/4/4
f 365/7/4 363/7/4 366/7/4
f 367/4/4 368/4/4 370/4/4
f 368/7/4 369/7/4 371/7/4
f 370/4/4 368/4/4 371/4/4
f 371/7/4 369/7/4 372/7/4
f 373/4/4 374/4/4 376/4/4
f 374/7/4 375/7/4 377/7/4
f 376/4/4 374/4/4 377/4/4
f 377/7/4 375/7/4 378/7/4
f 382/7/5 380/7/5 379/7/5
f 383/7/5 380/7/5 382/7/5
f 385/7/5 382/7/5 381/7/5
f 386/5/5 383/5/5 382/5/5
f 386/7/5 382/7/5 385/7/5
f 387/7/5 384/7/5 383/7/5
f 387/5/5 383/5/5 386/5/5
f 388/7/5 384/7/5 387/7/5
f 389/7/5 387/7/5 386/7/5
f 390/7/5 387/7/5 389/7/5
f 394/3/5 392/3/5 391/3/5
f 395/1/5 393/1/5 392/1/5
f 395/3/5 392/3/5 394/3/5
f 396/3/5 394/3/5 391/3/5
f 397/1/5 393/1/5 395/1/5
f 398/3/5 396/3/5 391/3/5
f 398/3/5 397/3/5 396/3/5
f 399/1/5 393/1/5 397/1/5
f 399/3/5 397/3/5 398/3/5
f 400/1/5 393/1/5 399/1/5
f 407/4/5 402/4/5 401/4/5
f 408/4/5 402/4/5 407/4/5
f 409/4/5 404/4/5 403/4/5
f 410/4/5 404/4/5 409/4/5
f 411/4/5 406/4/5 405/4/5
f 412/4/5 406/4/5 411/4/5
f 413/3/5 412/3/5 411/3/5
f 416/3/5 413/3/5 411/3/5
f 416/2/5 414/2/5 413/2/5
f 417/7/5 415/7/5 414/7/5
f 417/2/5 414/2/5 416/2/5
f 418/7/5 415/7/5 417/7/5
f 419/3/5 408/3/5 407/3/5
f 420/3/5 408/3/5 419/3/5
f 423/3/5 416/3/5 411/3/5
f 424/3/5 416/3/5 423/3/5
f 425/4/5 420/4/5 419/4/5
f 426/4/5 420/4/5 425/4/5
f 427/4/5 422/4/5 421/4/5
f 428/4/5 422/4/5 427/4/5
f 429/4/5 424/4/5 423/4/5
f 430/4/5 424/4/5 429/4/5
f 437/4/5 432/4/5 431/4/5
f 438/4/5 432/4/5 437/4/5
f 439/4/5 434/4/5 433/4/5
f 440/4/5 434/4/5 439/4/5
f 441/4/5 436/4/5 435/4/5
f 442/4/5 436/4/5 441/4/5
f 449/4/5 444/4/5 443/4/5
f 450/4/5 444/4/5 449/4/5
f 451/4/5 446/4/5 445/4/5
f 452/4/5 446/4/5 451/4/5
f 453/4/5 448/4/5 447/4/5
f 454/4/5 448/4/5 453/4/5
f 455/7/6 456/7/6 458/7/6
f 458/7/6 456/7/6 459/7/6
f 457/7/6 458/7/6 461/7/6
f 461/7/6 458/7/6 462/7/6
f 459/7/6 460/7/6 463/7/6
f 463/7/6 460/7/6 464/7/6
f 462/7/6 463/7/6 465/7/6
f 465/7/6 463/7/6 466/7/6
f 467/6/6 468/6/6 471/6/6
f 471/6/6 468/6/6 472/6/6
f 469/6/6 470/6/6 473/6/6
f 473/6/6 470/6/6 474/6/6
f 475/6/6 476/6/6 479/6/6
f 479/6/6 476/6/6 480/6/6
f 477/6/6 478/6/6 481/6/6
f 481/6/6 478/6/6 482/6/6
f 483/6/6 484/6/6 486/6/6
f 486/6/6 484/6/6 487/6/6
f 485/6/6 486/6/6 489/6/6
f 489/6/6 486/6/6 490/6/6
f 487/6/6 488/6/6 491/6/6
f 491/6/6 488/6/6 492/6/6
f 490/6/6 491/6/6 493/6/6
f 493/6/6 491/6/6 494/6/6
f 495/4/6 496/4/6 501/4/6
f 501/4/6 496/4/6 502/4/6
f 497/4/6 498/4/6 503/4/6
f 503/4/6 498/4/6 504/4/6
f 499/4/6 500/4/6 505/4/6
f 505/4/6 500/4/6 506/4/6
f 507/2/6 508/2/6 510/2/6
f 508/7/6 509/7/6 511/7/6
f 510/2/6 508/2/6 511/2/6
f 511/7/6 509/7/6 512/7/6
f 513/4/6 514/4/6 519/4/6
f 519/4/6 514/4/6 520/4/6
f 515/4/6 516/4/6 521/4/6
f 521/4/6 516/4/6 522/4/6
f 517/4/6 518/4/6 523/4/6
f 523/4/6 518/4/6 524/4/6
f 525/3/6 526/3/6 527/3/6
f 527/3/6 526/3/6 528/3/6
f 529/7/6 530/7/6 535/7/6
f 535/7/6 530/7/6 536/7/6
f 531/7/6 532/7/6 537/7/6
f 537/7/6 532/7/6 538/7/6
f 533/7/6 534/7/6 539/7/6
f 539/7/6 534/7/6 540/7/6
f 541/7/6 542/7/6 547/7/6
f 547/7/6 542/7/6 548/7/6
f 543/7/6 544/7/6 549/7/6
f 549/7/6 544/7/6 550/7/6
f 545/7/6 546/7/6 551/7/6
f 551/7/6 546/7/6 552/7/6
