# MagicaVoxel @ Ephtracy

# group
g lazer

# material
mtllib lazer.mtl
usemtl palette

# normals
vn -1 0 0
vn 1 0 0
vn 0 0 1
vn 0 0 -1
vn 0 -1 0
vn 0 1 0

# texcoords
vt 0.716797 0.5
vt 0.986328 0.5
vt 0.990234 0.5
vt 0.994141 0.5

# verts
v -2.5 0 0.5
v -2.5 0 -2.5
v -2.5 1 0.5
v -2.5 1 -2.5
v -1.5 0 1.5
v -1.5 0 0.5
v -1.5 0 -2.5
v -1.5 0 -3.5
v -1.5 1 1.5
v -1.5 1 0.5
v -1.5 1 -2.5
v -1.5 1 -3.5
v -1.5 3 0.5
v -1.5 3 -0.5
v -1.5 3 -1.5
v -1.5 3 -2.5
v -1.5 4 -0.5
v -1.5 4 -1.5
v -1.5 6 1.5
v -1.5 6 0.5
v -1.5 6 -5.5
v -1.5 7 2.5
v -1.5 7 1.5
v -1.5 7 0.5
v -1.5 7 -5.5
v -1.5 7 -6.5
v -1.5 8 2.5
v -1.5 8 1.5
v -1.5 8 0.5
v -1.5 8 -5.5
v -1.5 8 -6.5
v -1.5 9 1.5
v -1.5 9 0.5
v -1.5 9 -5.5
v -0.5 3 0.5
v -0.5 3 -0.5
v -0.5 3 -1.5
v -0.5 3 -2.5
v -0.5 4 0.5
v -0.5 4 -0.5
v -0.5 4 -1.5
v -0.5 4 -2.5
v -0.5 6 2.5
v -0.5 6 1.5
v -0.5 6 -0.5
v -0.5 6 -1.5
v -0.5 6 -5.5
v -0.5 6 -6.5
v -0.5 7 2.5
v -0.5 7 1.5
v -0.5 7 -5.5
v -0.5 7 -6.5
v -0.5 8 2.5
v -0.5 8 1.5
v -0.5 8 -5.5
v -0.5 8 -6.5
v -0.5 9 2.5
v -0.5 9 1.5
v -0.5 9 -5.5
v -0.5 9 -6.5
v 0.5 7 -4.5
v 0.5 7 -5.5
v 0.5 7 -6.5
v 0.5 8 -4.5
v 0.5 8 -5.5
v 0.5 8 -6.5
v -0.5 7 -4.5
v -0.5 7 -5.5
v -0.5 7 -6.5
v -0.5 8 -4.5
v -0.5 8 -5.5
v -0.5 8 -6.5
v 0.5 3 0.5
v 0.5 3 -0.5
v 0.5 3 -1.5
v 0.5 3 -2.5
v 0.5 4 0.5
v 0.5 4 -0.5
v 0.5 4 -1.5
v 0.5 4 -2.5
v 0.5 6 2.5
v 0.5 6 1.5
v 0.5 6 -0.5
v 0.5 6 -1.5
v 0.5 6 -5.5
v 0.5 6 -6.5
v 0.5 7 2.5
v 0.5 7 1.5
v 0.5 7 -5.5
v 0.5 7 -6.5
v 0.5 8 2.5
v 0.5 8 1.5
v 0.5 8 -5.5
v 0.5 8 -6.5
v 0.5 9 2.5
v 0.5 9 1.5
v 0.5 9 -5.5
v 0.5 9 -6.5
v 1.5 0 1.5
v 1.5 0 0.5
v 1.5 0 -2.5
v 1.5 0 -3.5
v 1.5 1 1.5
v 1.5 1 0.5
v 1.5 1 -2.5
v 1.5 1 -3.5
v 1.5 3 0.5
v 1.5 3 -0.5
v 1.5 3 -1.5
v 1.5 3 -2.5
v 1.5 4 -0.5
v 1.5 4 -1.5
v 1.5 6 1.5
v 1.5 6 0.5
v 1.5 6 -5.5
v 1.5 7 2.5
v 1.5 7 1.5
v 1.5 7 0.5
v 1.5 7 -5.5
v 1.5 7 -6.5
v 1.5 8 2.5
v 1.5 8 1.5
v 1.5 8 0.5
v 1.5 8 -5.5
v 1.5 8 -6.5
v 1.5 9 1.5
v 1.5 9 0.5
v 1.5 9 -5.5
v 2.5 0 0.5
v 2.5 0 -2.5
v 2.5 1 0.5
v 2.5 1 -2.5
v -1.5 7 2.5
v -1.5 8 2.5
v -0.5 6 2.5
v -0.5 7 2.5
v -0.5 8 2.5
v -0.5 9 2.5
v 0.5 6 2.5
v 0.5 7 2.5
v 0.5 8 2.5
v 0.5 9 2.5
v 1.5 7 2.5
v 1.5 8 2.5
v -1.5 0 1.5
v -1.5 1 1.5
v -1.5 6 1.5
v -1.5 7 1.5
v -1.5 8 1.5
v -1.5 9 1.5
v -0.5 6 1.5
v -0.5 7 1.5
v -0.5 8 1.5
v -0.5 9 1.5
v 0.5 6 1.5
v 0.5 7 1.5
v 0.5 8 1.5
v 0.5 9 1.5
v 1.5 0 1.5
v 1.5 1 1.5
v 1.5 6 1.5
v 1.5 7 1.5
v 1.5 8 1.5
v 1.5 9 1.5
v -2.5 0 0.5
v -2.5 1 0.5
v -1.5 0 0.5
v -1.5 1 0.5
v -1.5 3 0.5
v -0.5 3 0.5
v -0.5 4 0.5
v 0.5 3 0.5
v 0.5 4 0.5
v 1.5 0 0.5
v 1.5 1 0.5
v 1.5 3 0.5
v 2.5 0 0.5
v 2.5 1 0.5
v -1.5 3 -0.5
v -1.5 4 -0.5
v -0.5 3 -0.5
v -0.5 4 -0.5
v -0.5 6 -0.5
v 0.5 3 -0.5
v 0.5 4 -0.5
v 0.5 6 -0.5
v 1.5 3 -0.5
v 1.5 4 -0.5
v -1.5 3 -1.5
v -1.5 4 -1.5
v -0.5 3 -1.5
v -0.5 4 -1.5
v -0.5 6 -1.5
v 0.5 3 -1.5
v 0.5 4 -1.5
v 0.5 6 -1.5
v 1.5 3 -1.5
v 1.5 4 -1.5
v -2.5 0 -2.5
v -2.5 1 -2.5
v -1.5 0 -2.5
v -1.5 1 -2.5
v -1.5 3 -2.5
v -0.5 3 -2.5
v -0.5 4 -2.5
v 0.5 3 -2.5
v 0.5 4 -2.5
v 1.5 0 -2.5
v 1.5 1 -2.5
v 1.5 3 -2.5
v 2.5 0 -2.5
v 2.5 1 -2.5
v -1.5 0 -3.5
v -1.5 1 -3.5
v 1.5 0 -3.5
v 1.5 1 -3.5
v -0.5 7 -4.5
v -0.5 8 -4.5
v 0.5 7 -4.5
v 0.5 8 -4.5
v -1.5 6 -5.5
v -1.5 7 -5.5
v -1.5 8 -5.5
v -1.5 9 -5.5
v -0.5 6 -5.5
v -0.5 7 -5.5
v -0.5 8 -5.5
v -0.5 9 -5.5
v 0.5 6 -5.5
v 0.5 7 -5.5
v 0.5 8 -5.5
v 0.5 9 -5.5
v 1.5 6 -5.5
v 1.5 7 -5.5
v 1.5 8 -5.5
v 1.5 9 -5.5
v -1.5 7 -6.5
v -1.5 8 -6.5
v -0.5 6 -6.5
v -0.5 7 -6.5
v -0.5 8 -6.5
v -0.5 9 -6.5
v 0.5 6 -6.5
v 0.5 7 -6.5
v 0.5 8 -6.5
v 0.5 9 -6.5
v 1.5 7 -6.5
v 1.5 8 -6.5
v -1.5 0 1.5
v 1.5 0 1.5
v -2.5 0 0.5
v -1.5 0 0.5
v 1.5 0 0.5
v 2.5 0 0.5
v -2.5 0 -2.5
v -1.5 0 -2.5
v 1.5 0 -2.5
v 2.5 0 -2.5
v -1.5 0 -3.5
v 1.5 0 -3.5
v -0.5 6 2.5
v 0.5 6 2.5
v -1.5 6 1.5
v -0.5 6 1.5
v 0.5 6 1.5
v 1.5 6 1.5
v -1.5 6 0.5
v -0.5 6 0.5
v 0.5 6 0.5
v 1.5 6 0.5
v -0.5 6 -0.5
v 0.5 6 -0.5
v -0.5 6 -1.5
v 0.5 6 -1.5
v -1.5 6 -5.5
v -0.5 6 -5.5
v 0.5 6 -5.5
v 1.5 6 -5.5
v -0.5 6 -6.5
v 0.5 6 -6.5
v -1.5 7 2.5
v -0.5 7 2.5
v 0.5 7 2.5
v 1.5 7 2.5
v -1.5 7 1.5
v -0.5 7 1.5
v 0.5 7 1.5
v 1.5 7 1.5
v -1.5 7 -5.5
v -0.5 7 -5.5
v 0.5 7 -5.5
v 1.5 7 -5.5
v -1.5 7 -6.5
v -0.5 7 -6.5
v 0.5 7 -6.5
v 1.5 7 -6.5
v -0.5 8 -4.5
v 0.5 8 -4.5
v -0.5 8 -5.5
v 0.5 8 -5.5
v -0.5 8 -6.5
v 0.5 8 -6.5
v -1.5 1 1.5
v 1.5 1 1.5
v -2.5 1 0.5
v -1.5 1 0.5
v 1.5 1 0.5
v 2.5 1 0.5
v -2.5 1 -2.5
v -1.5 1 -2.5
v 1.5 1 -2.5
v 2.5 1 -2.5
v -1.5 1 -3.5
v 1.5 1 -3.5
v -1.5 3 0.5
v -0.5 3 0.5
v 0.5 3 0.5
v 1.5 3 0.5
v -1.5 3 -0.5
v -0.5 3 -0.5
v 0.5 3 -0.5
v 1.5 3 -0.5
v -1.5 3 -1.5
v -0.5 3 -1.5
v 0.5 3 -1.5
v 1.5 3 -1.5
v -1.5 3 -2.5
v -0.5 3 -2.5
v 0.5 3 -2.5
v 1.5 3 -2.5
v -0.5 4 0.5
v 0.5 4 0.5
v -1.5 4 -0.5
v -0.5 4 -0.5
v 0.5 4 -0.5
v 1.5 4 -0.5
v -1.5 4 -1.5
v -0.5 4 -1.5
v 0.5 4 -1.5
v 1.5 4 -1.5
v -0.5 4 -2.5
v 0.5 4 -2.5
v -0.5 7 -4.5
v 0.5 7 -4.5
v -0.5 7 -5.5
v 0.5 7 -5.5
v -0.5 7 -6.5
v 0.5 7 -6.5
v -1.5 8 2.5
v -0.5 8 2.5
v 0.5 8 2.5
v 1.5 8 2.5
v -1.5 8 1.5
v -0.5 8 1.5
v 0.5 8 1.5
v 1.5 8 1.5
v -1.5 8 -5.5
v -0.5 8 -5.5
v 0.5 8 -5.5
v 1.5 8 -5.5
v -1.5 8 -6.5
v -0.5 8 -6.5
v 0.5 8 -6.5
v 1.5 8 -6.5
v -0.5 9 2.5
v 0.5 9 2.5
v -1.5 9 1.5
v -0.5 9 1.5
v 0.5 9 1.5
v 1.5 9 1.5
v -1.5 9 0.5
v -0.5 9 0.5
v 0.5 9 0.5
v 1.5 9 0.5
v -1.5 9 -5.5
v -0.5 9 -5.5
v 0.5 9 -5.5
v 1.5 9 -5.5
v -0.5 9 -6.5
v 0.5 9 -6.5

# faces
f 3/4/1 2/4/1 1/4/1
f 4/4/1 2/4/1 3/4/1
f 9/4/1 6/4/1 5/4/1
f 10/4/1 6/4/1 9/4/1
f 11/4/1 8/4/1 7/4/1
f 12/4/1 8/4/1 11/4/1
f 13/3/1 11/3/1 10/3/1
f 14/3/1 11/3/1 13/3/1
f 15/3/1 11/3/1 14/3/1
f 16/3/1 11/3/1 15/3/1
f 17/3/1 15/3/1 14/3/1
f 18/3/1 15/3/1 17/3/1
f 23/2/1 20/2/1 19/2/1
f 24/1/1 21/1/1 20/1/1
f 24/2/1 20/2/1 23/2/1
f 25/1/1 21/1/1 24/1/1
f 27/4/1 23/4/1 22/4/1
f 28/2/1 24/2/1 23/2/1
f 28/4/1 23/4/1 27/4/1
f 29/3/1 25/3/1 24/3/1
f 29/2/1 24/2/1 28/2/1
f 30/4/1 26/4/1 25/4/1
f 30/3/1 25/3/1 29/3/1
f 31/4/1 26/4/1 30/4/1
f 32/2/1 29/2/1 28/2/1
f 33/1/1 30/1/1 29/1/1
f 33/2/1 29/2/1 32/2/1
f 34/1/1 30/1/1 33/1/1
f 39/3/1 36/3/1 35/3/1
f 40/3/1 36/3/1 39/3/1
f 41/3/1 38/3/1 37/3/1
f 42/3/1 38/3/1 41/3/1
f 45/4/1 41/4/1 40/4/1
f 46/4/1 41/4/1 45/4/1
f 49/4/1 44/4/1 43/4/1
f 50/4/1 44/4/1 49/4/1
f 51/4/1 48/4/1 47/4/1
f 52/4/1 48/4/1 51/4/1
f 57/4/1 54/4/1 53/4/1
f 58/4/1 54/4/1 57/4/1
f 59/4/1 56/4/1 55/4/1
f 60/4/1 56/4/1 59/4/1
f 64/3/1 62/3/1 61/3/1
f 65/4/1 63/4/1 62/4/1
f 65/3/1 62/3/1 64/3/1
f 66/4/1 63/4/1 65/4/1
f 67/3/2 68/3/2 70/3/2
f 68/4/2 69/4/2 71/4/2
f 70/3/2 68/3/2 71/3/2
f 71/4/2 69/4/2 72/4/2
f 73/3/2 74/3/2 77/3/2
f 77/3/2 74/3/2 78/3/2
f 75/3/2 76/3/2 79/3/2
f 79/3/2 76/3/2 80/3/2
f 78/4/2 79/4/2 83/4/2
f 83/4/2 79/4/2 84/4/2
f 81/4/2 82/4/2 87/4/2
f 87/4/2 82/4/2 88/4/2
f 85/4/2 86/4/2 89/4/2
f 89/4/2 86/4/2 90/4/2
f 91/4/2 92/4/2 95/4/2
f 95/4/2 92/4/2 96/4/2
f 93/4/2 94/4/2 97/4/2
f 97/4/2 94/4/2 98/4/2
f 99/4/2 100/4/2 103/4/2
f 103/4/2 100/4/2 104/4/2
f 101/4/2 102/4/2 105/4/2
f 105/4/2 102/4/2 106/4/2
f 104/3/2 105/3/2 107/3/2
f 107/3/2 105/3/2 108/3/2
f 108/3/2 105/3/2 109/3/2
f 109/3/2 105/3/2 110/3/2
f 108/3/2 109/3/2 111/3/2
f 111/3/2 109/3/2 112/3/2
f 113/2/2 114/2/2 117/2/2
f 114/1/2 115/1/2 118/1/2
f 117/2/2 114/2/2 118/2/2
f 118/1/2 115/1/2 119/1/2
f 116/4/2 117/4/2 121/4/2
f 117/2/2 118/2/2 122/2/2
f 121/4/2 117/4/2 122/4/2
f 118/3/2 119/3/2 123/3/2
f 122/2/2 118/2/2 123/2/2
f 119/4/2 120/4/2 124/4/2
f 123/3/2 119/3/2 124/3/2
f 124/4/2 120/4/2 125/4/2
f 122/2/2 123/2/2 126/2/2
f 123/1/2 124/1/2 127/1/2
f 126/2/2 123/2/2 127/2/2
f 127/1/2 124/1/2 128/1/2
f 129/4/2 130/4/2 131/4/2
f 131/4/2 130/4/2 132/4/2
f 136/4/3 134/4/3 133/4/3
f 137/4/3 134/4/3 136/4/3
f 139/4/3 136/4/3 135/4/3
f 139/4/3 138/4/3 137/4/3
f 139/4/3 137/4/3 136/4/3
f 140/4/3 138/4/3 139/4/3
f 141/4/3 138/4/3 140/4/3
f 142/4/3 138/4/3 141/4/3
f 143/4/3 141/4/3 140/4/3
f 144/4/3 141/4/3 143/4/3
f 151/2/3 148/2/3 147/2/3
f 152/2/3 148/2/3 151/2/3
f 153/2/3 150/2/3 149/2/3
f 154/2/3 150/2/3 153/2/3
f 159/4/3 146/4/3 145/4/3
f 160/4/3 146/4/3 159/4/3
f 161/2/3 156/2/3 155/2/3
f 162/2/3 156/2/3 161/2/3
f 163/2/3 158/2/3 157/2/3
f 164/2/3 158/2/3 163/2/3
f 167/4/3 166/4/3 165/4/3
f 168/4/3 166/4/3 167/4/3
f 170/3/3 169/3/3 168/3/3
f 172/3/3 170/3/3 168/3/3
f 172/3/3 171/3/3 170/3/3
f 173/3/3 171/3/3 172/3/3
f 175/3/3 172/3/3 168/3/3
f 176/3/3 172/3/3 175/3/3
f 177/4/3 175/4/3 174/4/3
f 178/4/3 175/4/3 177/4/3
f 181/3/3 180/3/3 179/3/3
f 182/3/3 180/3/3 181/3/3
f 185/4/3 183/4/3 182/4/3
f 186/4/3 183/4/3 185/4/3
f 187/3/3 185/3/3 184/3/3
f 188/3/3 185/3/3 187/3/3
f 189/3/4 190/3/4 191/3/4
f 191/3/4 190/3/4 192/3/4
f 192/4/4 193/4/4 195/4/4
f 195/4/4 193/4/4 196/4/4
f 194/3/4 195/3/4 197/3/4
f 197/3/4 195/3/4 198/3/4
f 199/4/4 200/4/4 201/4/4
f 201/4/4 200/4/4 202/4/4
f 202/3/4 203/3/4 204/3/4
f 202/3/4 204/3/4 206/3/4
f 204/3/4 205/3/4 206/3/4
f 206/3/4 205/3/4 207/3/4
f 202/3/4 206/3/4 209/3/4
f 209/3/4 206/3/4 210/3/4
f 208/4/4 209/4/4 211/4/4
f 211/4/4 209/4/4 212/4/4
f 213/4/4 214/4/4 215/4/4
f 215/4/4 214/4/4 216/4/4
f 217/3/4 218/3/4 219/3/4
f 219/3/4 218/3/4 220/3/4
f 221/1/4 222/1/4 225/1/4
f 225/1/4 222/1/4 226/1/4
f 223/1/4 224/1/4 227/1/4
f 227/1/4 224/1/4 228/1/4
f 229/1/4 230/1/4 233/1/4
f 233/1/4 230/1/4 234/1/4
f 231/1/4 232/1/4 235/1/4
f 235/1/4 232/1/4 236/1/4
f 237/4/4 238/4/4 240/4/4
f 240/4/4 238/4/4 241/4/4
f 239/4/4 240/4/4 243/4/4
f 243/4/4 240/4/4 244/4/4
f 241/4/4 242/4/4 245/4/4
f 245/4/4 242/4/4 246/4/4
f 244/4/4 245/4/4 247/4/4
f 247/4/4 245/4/4 248/4/4
f 252/4/5 250/4/5 249/4/5
f 253/4/5 250/4/5 252/4/5
f 255/4/5 252/4/5 251/4/5
f 256/2/5 253/2/5 252/2/5
f 256/4/5 252/4/5 255/4/5
f 257/4/5 254/4/5 253/4/5
f 257/2/5 253/2/5 256/2/5
f 258/4/5 254/4/5 257/4/5
f 259/4/5 257/4/5 256/4/5
f 260/4/5 257/4/5 259/4/5
f 264/4/5 262/4/5 261/4/5
f 265/4/5 262/4/5 264/4/5
f 267/2/5 264/2/5 263/2/5
f 267/2/5 266/2/5 265/2/5
f 267/2/5 265/2/5 264/2/5
f 268/2/5 266/2/5 267/2/5
f 269/2/5 266/2/5 268/2/5
f 270/2/5 266/2/5 269/2/5
f 271/1/5 268/1/5 267/1/5
f 271/3/5 269/3/5 268/3/5
f 272/1/5 270/1/5 269/1/5
f 272/3/5 269/3/5 271/3/5
f 273/1/5 271/1/5 267/1/5
f 274/1/5 270/1/5 272/1/5
f 275/1/5 273/1/5 267/1/5
f 276/3/5 274/3/5 273/3/5
f 276/1/5 273/1/5 275/1/5
f 277/1/5 270/1/5 274/1/5
f 277/3/5 274/3/5 276/3/5
f 278/1/5 270/1/5 277/1/5
f 279/4/5 277/4/5 276/4/5
f 280/4/5 277/4/5 279/4/5
f 285/4/5 282/4/5 281/4/5
f 286/4/5 282/4/5 285/4/5
f 287/4/5 284/4/5 283/4/5
f 288/4/5 284/4/5 287/4/5
f 293/4/5 290/4/5 289/4/5
f 294/4/5 290/4/5 293/4/5
f 295/4/5 292/4/5 291/4/5
f 296/4/5 292/4/5 295/4/5
f 299/3/5 298/3/5 297/3/5
f 300/3/5 298/3/5 299/3/5
f 301/4/5 300/4/5 299/4/5
f 302/4/5 300/4/5 301/4/5
f 303/4/6 304/4/6 306/4/6
f 306/4/6 304/4/6 307/4/6
f 305/4/6 306/4/6 309/4/6
f 309/4/6 306/4/6 310/4/6
f 307/4/6 308/4/6 311/4/6
f 311/4/6 308/4/6 312/4/6
f 310/4/6 311/4/6 313/4/6
f 313/4/6 311/4/6 314/4/6
f 315/3/6 316/3/6 319/3/6
f 319/3/6 316/3/6 320/3/6
f 317/3/6 318/3/6 321/3/6
f 321/3/6 318/3/6 322/3/6
f 323/3/6 324/3/6 327/3/6
f 327/3/6 324/3/6 328/3/6
f 325/3/6 326/3/6 329/3/6
f 329/3/6 326/3/6 330/3/6
f 331/3/6 332/3/6 334/3/6
f 334/3/6 332/3/6 335/3/6
f 333/3/6 334/3/6 337/3/6
f 337/3/6 334/3/6 338/3/6
f 335/3/6 336/3/6 339/3/6
f 339/3/6 336/3/6 340/3/6
f 338/3/6 339/3/6 341/3/6
f 341/3/6 339/3/6 342/3/6
f 343/3/6 344/3/6 345/3/6
f 345/3/6 344/3/6 346/3/6
f 345/4/6 346/4/6 347/4/6
f 347/4/6 346/4/6 348/4/6
f 349/4/6 350/4/6 353/4/6
f 353/4/6 350/4/6 354/4/6
f 351/4/6 352/4/6 355/4/6
f 355/4/6 352/4/6 356/4/6
f 357/4/6 358/4/6 361/4/6
f 361/4/6 358/4/6 362/4/6
f 359/4/6 360/4/6 363/4/6
f 363/4/6 360/4/6 364/4/6
f 365/4/6 366/4/6 368/4/6
f 368/4/6 366/4/6 369/4/6
f 367/2/6 368/2/6 371/2/6
f 369/2/6 370/2/6 371/2/6
f 368/2/6 369/2/6 371/2/6
f 371/2/6 370/2/6 372/2/6
f 372/2/6 370/2/6 373/2/6
f 373/2/6 370/2/6 374/2/6
f 371/1/6 372/1/6 375/1/6
f 372/3/6 373/3/6 376/3/6
f 375/1/6 372/1/6 376/1/6
f 373/1/6 374/1/6 377/1/6
f 376/3/6 373/3/6 377/3/6
f 377/1/6 374/1/6 378/1/6
f 376/4/6 377/4/6 379/4/6
f 379/4/6 377/4/6 380/4/6
