# MagicaVoxel @ Ephtracy

# group
g minigun

# material
mtllib minigun.mtl
usemtl palette

# normals
vn -1 0 0
vn 1 0 0
vn 0 0 1
vn 0 0 -1
vn 0 -1 0
vn 0 1 0

# texcoords
vt 0.986328 0.5
vt 0.990234 0.5
vt 0.994141 0.5

# verts
v -2.5 0 0.5
v -2.5 0 -2.5
v -2.5 1 0.5
v -2.5 1 -2.5
v -1.5 0 1.5
v -1.5 0 0.5
v -1.5 0 -2.5
v -1.5 0 -3.5
v -1.5 1 1.5
v -1.5 1 0.5
v -1.5 1 -2.5
v -1.5 1 -3.5
v -1.5 3 0.5
v -1.5 3 -0.5
v -1.5 3 -1.5
v -1.5 3 -2.5
v -1.5 4 -0.5
v -1.5 4 -1.5
v -1.5 6 1.5
v -1.5 6 0.5
v -1.5 7 2.5
v -1.5 7 1.5
v -1.5 7 0.5
v -1.5 7 -5.5
v -1.5 7 -6.5
v -1.5 8 2.5
v -1.5 8 1.5
v -1.5 8 0.5
v -1.5 8 -5.5
v -1.5 8 -6.5
v -1.5 9 1.5
v -1.5 9 0.5
v -0.5 3 0.5
v -0.5 3 -0.5
v -0.5 3 -1.5
v -0.5 3 -2.5
v -0.5 4 0.5
v -0.5 4 -0.5
v -0.5 4 -1.5
v -0.5 4 -2.5
v -0.5 6 2.5
v -0.5 6 1.5
v -0.5 6 0.5
v -0.5 6 -0.5
v -0.5 6 -1.5
v -0.5 6 -5.5
v -0.5 6 -6.5
v -0.5 7 2.5
v -0.5 7 1.5
v -0.5 7 0.5
v -0.5 7 -5.5
v -0.5 7 -6.5
v -0.5 8 2.5
v -0.5 8 1.5
v -0.5 8 0.5
v -0.5 8 -5.5
v -0.5 8 -6.5
v -0.5 9 2.5
v -0.5 9 1.5
v -0.5 9 0.5
v -0.5 9 -5.5
v -0.5 9 -6.5
v 0.5 7 -4.5
v 0.5 7 -5.5
v 0.5 7 -6.5
v 0.5 8 -4.5
v 0.5 8 -5.5
v 0.5 8 -6.5
v -0.5 7 -4.5
v -0.5 7 -5.5
v -0.5 7 -6.5
v -0.5 8 -4.5
v -0.5 8 -5.5
v -0.5 8 -6.5
v 0.5 3 0.5
v 0.5 3 -0.5
v 0.5 3 -1.5
v 0.5 3 -2.5
v 0.5 4 0.5
v 0.5 4 -0.5
v 0.5 4 -1.5
v 0.5 4 -2.5
v 0.5 6 2.5
v 0.5 6 1.5
v 0.5 6 0.5
v 0.5 6 -0.5
v 0.5 6 -1.5
v 0.5 6 -5.5
v 0.5 6 -6.5
v 0.5 7 2.5
v 0.5 7 1.5
v 0.5 7 0.5
v 0.5 7 -5.5
v 0.5 7 -6.5
v 0.5 8 2.5
v 0.5 8 1.5
v 0.5 8 0.5
v 0.5 8 -5.5
v 0.5 8 -6.5
v 0.5 9 2.5
v 0.5 9 1.5
v 0.5 9 0.5
v 0.5 9 -5.5
v 0.5 9 -6.5
v 1.5 0 1.5
v 1.5 0 0.5
v 1.5 0 -2.5
v 1.5 0 -3.5
v 1.5 1 1.5
v 1.5 1 0.5
v 1.5 1 -2.5
v 1.5 1 -3.5
v 1.5 3 0.5
v 1.5 3 -0.5
v 1.5 3 -1.5
v 1.5 3 -2.5
v 1.5 4 -0.5
v 1.5 4 -1.5
v 1.5 6 1.5
v 1.5 6 0.5
v 1.5 7 2.5
v 1.5 7 1.5
v 1.5 7 0.5
v 1.5 7 -5.5
v 1.5 7 -6.5
v 1.5 8 2.5
v 1.5 8 1.5
v 1.5 8 0.5
v 1.5 8 -5.5
v 1.5 8 -6.5
v 1.5 9 1.5
v 1.5 9 0.5
v 2.5 0 0.5
v 2.5 0 -2.5
v 2.5 1 0.5
v 2.5 1 -2.5
v -1.5 7 2.5
v -1.5 8 2.5
v -0.5 6 2.5
v -0.5 7 2.5
v -0.5 8 2.5
v -0.5 9 2.5
v 0.5 6 2.5
v 0.5 7 2.5
v 0.5 8 2.5
v 0.5 9 2.5
v 1.5 7 2.5
v 1.5 8 2.5
v -1.5 0 1.5
v -1.5 1 1.5
v -1.5 6 1.5
v -1.5 7 1.5
v -1.5 8 1.5
v -1.5 9 1.5
v -0.5 6 1.5
v -0.5 7 1.5
v -0.5 8 1.5
v -0.5 9 1.5
v 0.5 6 1.5
v 0.5 7 1.5
v 0.5 8 1.5
v 0.5 9 1.5
v 1.5 0 1.5
v 1.5 1 1.5
v 1.5 6 1.5
v 1.5 7 1.5
v 1.5 8 1.5
v 1.5 9 1.5
v -2.5 0 0.5
v -2.5 1 0.5
v -1.5 0 0.5
v -1.5 1 0.5
v -1.5 3 0.5
v -0.5 3 0.5
v -0.5 4 0.5
v 0.5 3 0.5
v 0.5 4 0.5
v 1.5 0 0.5
v 1.5 1 0.5
v 1.5 3 0.5
v 2.5 0 0.5
v 2.5 1 0.5
v -1.5 3 -0.5
v -1.5 4 -0.5
v -0.5 3 -0.5
v -0.5 4 -0.5
v -0.5 6 -0.5
v 0.5 3 -0.5
v 0.5 4 -0.5
v 0.5 6 -0.5
v 1.5 3 -0.5
v 1.5 4 -0.5
v -1.5 6 0.5
v -1.5 7 0.5
v -1.5 8 0.5
v -1.5 9 0.5
v -0.5 6 0.5
v -0.5 7 0.5
v -0.5 8 0.5
v -0.5 9 0.5
v 0.5 6 0.5
v 0.5 7 0.5
v 0.5 8 0.5
v 0.5 9 0.5
v 1.5 6 0.5
v 1.5 7 0.5
v 1.5 8 0.5
v 1.5 9 0.5
v -1.5 3 -1.5
v -1.5 4 -1.5
v -0.5 3 -1.5
v -0.5 4 -1.5
v -0.5 6 -1.5
v 0.5 3 -1.5
v 0.5 4 -1.5
v 0.5 6 -1.5
v 1.5 3 -1.5
v 1.5 4 -1.5
v -2.5 0 -2.5
v -2.5 1 -2.5
v -1.5 0 -2.5
v -1.5 1 -2.5
v -1.5 3 -2.5
v -0.5 3 -2.5
v -0.5 4 -2.5
v 0.5 3 -2.5
v 0.5 4 -2.5
v 1.5 0 -2.5
v 1.5 1 -2.5
v 1.5 3 -2.5
v 2.5 0 -2.5
v 2.5 1 -2.5
v -1.5 0 -3.5
v -1.5 1 -3.5
v 1.5 0 -3.5
v 1.5 1 -3.5
v -0.5 7 -4.5
v -0.5 8 -4.5
v 0.5 7 -4.5
v 0.5 8 -4.5
v -1.5 7 -6.5
v -1.5 8 -6.5
v -0.5 6 -6.5
v -0.5 7 -6.5
v -0.5 8 -6.5
v -0.5 9 -6.5
v 0.5 6 -6.5
v 0.5 7 -6.5
v 0.5 8 -6.5
v 0.5 9 -6.5
v 1.5 7 -6.5
v 1.5 8 -6.5
v -1.5 0 1.5
v 1.5 0 1.5
v -2.5 0 0.5
v -1.5 0 0.5
v 1.5 0 0.5
v 2.5 0 0.5
v -2.5 0 -2.5
v -1.5 0 -2.5
v 1.5 0 -2.5
v 2.5 0 -2.5
v -1.5 0 -3.5
v 1.5 0 -3.5
v -0.5 6 2.5
v 0.5 6 2.5
v -1.5 6 1.5
v -0.5 6 1.5
v 0.5 6 1.5
v 1.5 6 1.5
v -1.5 6 0.5
v -0.5 6 0.5
v 0.5 6 0.5
v 1.5 6 0.5
v -0.5 6 -0.5
v 0.5 6 -0.5
v -0.5 6 -1.5
v 0.5 6 -1.5
v -0.5 6 -5.5
v 0.5 6 -5.5
v -0.5 6 -6.5
v 0.5 6 -6.5
v -1.5 7 2.5
v -0.5 7 2.5
v 0.5 7 2.5
v 1.5 7 2.5
v -1.5 7 1.5
v -0.5 7 1.5
v 0.5 7 1.5
v 1.5 7 1.5
v -1.5 7 0.5
v -0.5 7 0.5
v 0.5 7 0.5
v 1.5 7 0.5
v -1.5 7 -5.5
v -0.5 7 -5.5
v 0.5 7 -5.5
v 1.5 7 -5.5
v -1.5 7 -6.5
v -0.5 7 -6.5
v 0.5 7 -6.5
v 1.5 7 -6.5
v -0.5 8 -4.5
v 0.5 8 -4.5
v -0.5 8 -5.5
v 0.5 8 -5.5
v -0.5 8 -6.5
v 0.5 8 -6.5
v -1.5 1 1.5
v 1.5 1 1.5
v -2.5 1 0.5
v -1.5 1 0.5
v 1.5 1 0.5
v 2.5 1 0.5
v -2.5 1 -2.5
v -1.5 1 -2.5
v 1.5 1 -2.5
v 2.5 1 -2.5
v -1.5 1 -3.5
v 1.5 1 -3.5
v -1.5 3 0.5
v -0.5 3 0.5
v 0.5 3 0.5
v 1.5 3 0.5
v -1.5 3 -0.5
v -0.5 3 -0.5
v 0.5 3 -0.5
v 1.5 3 -0.5
v -1.5 3 -1.5
v -0.5 3 -1.5
v 0.5 3 -1.5
v 1.5 3 -1.5
v -1.5 3 -2.5
v -0.5 3 -2.5
v 0.5 3 -2.5
v 1.5 3 -2.5
v -0.5 4 0.5
v 0.5 4 0.5
v -1.5 4 -0.5
v -0.5 4 -0.5
v 0.5 4 -0.5
v 1.5 4 -0.5
v -1.5 4 -1.5
v -0.5 4 -1.5
v 0.5 4 -1.5
v 1.5 4 -1.5
v -0.5 4 -2.5
v 0.5 4 -2.5
v -0.5 7 -4.5
v 0.5 7 -4.5
v -0.5 7 -5.5
v 0.5 7 -5.5
v -0.5 7 -6.5
v 0.5 7 -6.5
v -1.5 8 2.5
v -0.5 8 2.5
v 0.5 8 2.5
v 1.5 8 2.5
v -1.5 8 1.5
v -0.5 8 1.5
v 0.5 8 1.5
v 1.5 8 1.5
v -1.5 8 0.5
v -0.5 8 0.5
v 0.5 8 0.5
v 1.5 8 0.5
v -1.5 8 -5.5
v -0.5 8 -5.5
v 0.5 8 -5.5
v 1.5 8 -5.5
v -1.5 8 -6.5
v -0.5 8 -6.5
v 0.5 8 -6.5
v 1.5 8 -6.5
v -0.5 9 2.5
v 0.5 9 2.5
v -1.5 9 1.5
v -0.5 9 1.5
v 0.5 9 1.5
v 1.5 9 1.5
v -1.5 9 0.5
v -0.5 9 0.5
v 0.5 9 0.5
v 1.5 9 0.5
v -0.5 9 -5.5
v 0.5 9 -5.5
v -0.5 9 -6.5
v 0.5 9 -6.5

# faces
f 3/3/1 2/3/1 1/3/1
f 4/3/1 2/3/1 3/3/1
f 9/3/1 6/3/1 5/3/1
f 10/3/1 6/3/1 9/3/1
f 11/3/1 8/3/1 7/3/1
f 12/3/1 8/3/1 11/3/1
f 13/2/1 11/2/1 10/2/1
f 14/2/1 11/2/1 13/2/1
f 15/2/1 11/2/1 14/2/1
f 16/2/1 11/2/1 15/2/1
f 17/2/1 15/2/1 14/2/1
f 18/2/1 15/2/1 17/2/1
f 22/1/1 20/1/1 19/1/1
f 23/1/1 20/1/1 22/1/1
f 26/3/1 22/3/1 21/3/1
f 27/1/1 23/1/1 22/1/1
f 27/3/1 22/3/1 26/3/1
f 28/2/1 24/2/1 23/2/1
f 28/1/1 23/1/1 27/1/1
f 29/3/1 25/3/1 24/3/1
f 29/2/1 24/2/1 28/2/1
f 30/3/1 25/3/1 29/3/1
f 31/1/1 28/1/1 27/1/1
f 32/1/1 28/1/1 31/1/1
f 37/2/1 34/2/1 33/2/1
f 38/2/1 34/2/1 37/2/1
f 39/2/1 36/2/1 35/2/1
f 40/2/1 36/2/1 39/2/1
f 44/3/1 39/3/1 38/3/1
f 45/3/1 39/3/1 44/3/1
f 48/3/1 42/3/1 41/3/1
f 49/3/1 42/3/1 48/3/1
f 50/2/1 45/2/1 44/2/1
f 50/2/1 44/2/1 43/2/1
f 50/2/1 46/2/1 45/2/1
f 51/3/1 47/3/1 46/3/1
f 51/2/1 46/2/1 50/2/1
f 52/3/1 47/3/1 51/3/1
f 58/3/1 54/3/1 53/3/1
f 59/3/1 54/3/1 58/3/1
f 60/2/1 56/2/1 55/2/1
f 61/3/1 57/3/1 56/3/1
f 61/2/1 56/2/1 60/2/1
f 62/3/1 57/3/1 61/3/1
f 66/2/1 64/2/1 63/2/1
f 67/3/1 65/3/1 64/3/1
f 67/2/1 64/2/1 66/2/1
f 68/3/1 65/3/1 67/3/1
f 69/2/2 70/2/2 72/2/2
f 70/3/2 71/3/2 73/3/2
f 72/2/2 70/2/2 73/2/2
f 73/3/2 71/3/2 74/3/2
f 75/2/2 76/2/2 79/2/2
f 79/2/2 76/2/2 80/2/2
f 77/2/2 78/2/2 81/2/2
f 81/2/2 78/2/2 82/2/2
f 80/3/2 81/3/2 86/3/2
f 86/3/2 81/3/2 87/3/2
f 83/3/2 84/3/2 90/3/2
f 90/3/2 84/3/2 91/3/2
f 86/2/2 87/2/2 92/2/2
f 85/2/2 86/2/2 92/2/2
f 87/2/2 88/2/2 92/2/2
f 88/3/2 89/3/2 93/3/2
f 92/2/2 88/2/2 93/2/2
f 93/3/2 89/3/2 94/3/2
f 95/3/2 96/3/2 100/3/2
f 100/3/2 96/3/2 101/3/2
f 97/2/2 98/2/2 102/2/2
f 98/3/2 99/3/2 103/3/2
f 102/2/2 98/2/2 103/2/2
f 103/3/2 99/3/2 104/3/2
f 105/3/2 106/3/2 109/3/2
f 109/3/2 106/3/2 110/3/2
f 107/3/2 108/3/2 111/3/2
f 111/3/2 108/3/2 112/3/2
f 110/2/2 111/2/2 113/2/2
f 113/2/2 111/2/2 114/2/2
f 114/2/2 111/2/2 115/2/2
f 115/2/2 111/2/2 116/2/2
f 114/2/2 115/2/2 117/2/2
f 117/2/2 115/2/2 118/2/2
f 119/1/2 120/1/2 122/1/2
f 122/1/2 120/1/2 123/1/2
f 121/3/2 122/3/2 126/3/2
f 122/1/2 123/1/2 127/1/2
f 126/3/2 122/3/2 127/3/2
f 123/2/2 124/2/2 128/2/2
f 127/1/2 123/1/2 128/1/2
f 124/3/2 125/3/2 129/3/2
f 128/2/2 124/2/2 129/2/2
f 129/3/2 125/3/2 130/3/2
f 127/1/2 128/1/2 131/1/2
f 131/1/2 128/1/2 132/1/2
f 133/3/2 134/3/2 135/3/2
f 135/3/2 134/3/2 136/3/2
f 140/3/3 138/3/3 137/3/3
f 141/3/3 138/3/3 140/3/3
f 143/3/3 140/3/3 139/3/3
f 143/3/3 142/3/3 141/3/3
f 143/3/3 141/3/3 140/3/3
f 144/3/3 142/3/3 143/3/3
f 145/3/3 142/3/3 144/3/3
f 146/3/3 142/3/3 145/3/3
f 147/3/3 145/3/3 144/3/3
f 148/3/3 145/3/3 147/3/3
f 155/1/3 152/1/3 151/1/3
f 156/1/3 152/1/3 155/1/3
f 157/1/3 154/1/3 153/1/3
f 158/1/3 154/1/3 157/1/3
f 163/3/3 150/3/3 149/3/3
f 164/3/3 150/3/3 163/3/3
f 165/1/3 160/1/3 159/1/3
f 166/1/3 160/1/3 165/1/3
f 167/1/3 162/1/3 161/1/3
f 168/1/3 162/1/3 167/1/3
f 171/3/3 170/3/3 169/3/3
f 172/3/3 170/3/3 171/3/3
f 174/2/3 173/2/3 172/2/3
f 176/2/3 174/2/3 172/2/3
f 176/2/3 175/2/3 174/2/3
f 177/2/3 175/2/3 176/2/3
f 179/2/3 176/2/3 172/2/3
f 180/2/3 176/2/3 179/2/3
f 181/3/3 179/3/3 178/3/3
f 182/3/3 179/3/3 181/3/3
f 185/2/3 184/2/3 183/2/3
f 186/2/3 184/2/3 185/2/3
f 189/3/3 187/3/3 186/3/3
f 190/3/3 187/3/3 189/3/3
f 191/2/3 189/2/3 188/2/3
f 192/2/3 189/2/3 191/2/3
f 193/1/4 194/1/4 197/1/4
f 197/1/4 194/1/4 198/1/4
f 195/1/4 196/1/4 199/1/4
f 199/1/4 196/1/4 200/1/4
f 201/1/4 202/1/4 205/1/4
f 205/1/4 202/1/4 206/1/4
f 203/1/4 204/1/4 207/1/4
f 207/1/4 204/1/4 208/1/4
f 209/2/4 210/2/4 211/2/4
f 211/2/4 210/2/4 212/2/4
f 212/3/4 213/3/4 215/3/4
f 215/3/4 213/3/4 216/3/4
f 214/2/4 215/2/4 217/2/4
f 217/2/4 215/2/4 218/2/4
f 219/3/4 220/3/4 221/3/4
f 221/3/4 220/3/4 222/3/4
f 222/2/4 223/2/4 224/2/4
f 222/2/4 224/2/4 226/2/4
f 224/2/4 225/2/4 226/2/4
f 226/2/4 225/2/4 227/2/4
f 222/2/4 226/2/4 229/2/4
f 229/2/4 226/2/4 230/2/4
f 228/3/4 229/3/4 231/3/4
f 231/3/4 229/3/4 232/3/4
f 233/3/4 234/3/4 235/3/4
f 235/3/4 234/3/4 236/3/4
f 237/2/4 238/2/4 239/2/4
f 239/2/4 238/2/4 240/2/4
f 241/3/4 242/3/4 244/3/4
f 244/3/4 242/3/4 245/3/4
f 243/3/4 244/3/4 247/3/4
f 247/3/4 244/3/4 248/3/4
f 245/3/4 246/3/4 249/3/4
f 249/3/4 246/3/4 250/3/4
f 248/3/4 249/3/4 251/3/4
f 251/3/4 249/3/4 252/3/4
f 256/3/5 254/3/5 253/3/5
f 257/3/5 254/3/5 256/3/5
f 259/3/5 256/3/5 255/3/5
f 260/1/5 257/1/5 256/1/5
f 260/3/5 256/3/5 259/3/5
f 261/3/5 258/3/5 257/3/5
f 261/1/5 257/1/5 260/1/5
f 262/3/5 258/3/5 261/3/5
f 263/3/5 261/3/5 260/3/5
f 264/3/5 261/3/5 263/3/5
f 268/3/5 266/3/5 265/3/5
f 269/3/5 266/3/5 268/3/5
f 271/1/5 268/1/5 267/1/5
f 271/1/5 270/1/5 269/1/5
f 271/1/5 269/1/5 268/1/5
f 272/1/5 270/1/5 271/1/5
f 273/1/5 270/1/5 272/1/5
f 274/1/5 270/1/5 273/1/5
f 275/2/5 273/2/5 272/2/5
f 276/2/5 273/2/5 275/2/5
f 279/2/5 278/2/5 277/2/5
f 280/2/5 278/2/5 279/2/5
f 281/3/5 280/3/5 279/3/5
f 282/3/5 280/3/5 281/3/5
f 287/3/5 284/3/5 283/3/5
f 288/3/5 284/3/5 287/3/5
f 289/3/5 286/3/5 285/3/5
f 290/3/5 286/3/5 289/3/5
f 295/2/5 292/2/5 291/2/5
f 296/2/5 292/2/5 295/2/5
f 297/2/5 294/2/5 293/2/5
f 298/2/5 294/2/5 297/2/5
f 299/3/5 296/3/5 295/3/5
f 300/3/5 296/3/5 299/3/5
f 301/3/5 298/3/5 297/3/5
f 302/3/5 298/3/5 301/3/5
f 305/2/5 304/2/5 303/2/5
f 306/2/5 304/2/5 305/2/5
f 307/3/5 306/3/5 305/3/5
f 308/3/5 306/3/5 307/3/5
f 309/3/6 310/3/6 312/3/6
f 312/3/6 310/3/6 313/3/6
f 311/3/6 312/3/6 315/3/6
f 315/3/6 312/3/6 316/3/6
f 313/3/6 314/3/6 317/3/6
f 317/3/6 314/3/6 318/3/6
f 316/3/6 317/3/6 319/3/6
f 319/3/6 317/3/6 320/3/6
f 321/2/6 322/2/6 325/2/6
f 325/2/6 322/2/6 326/2/6
f 323/2/6 324/2/6 327/2/6
f 327/2/6 324/2/6 328/2/6
f 329/2/6 330/2/6 333/2/6
f 333/2/6 330/2/6 334/2/6
f 331/2/6 332/2/6 335/2/6
f 335/2/6 332/2/6 336/2/6
f 337/2/6 338/2/6 340/2/6
f 340/2/6 338/2/6 341/2/6
f 339/2/6 340/2/6 343/2/6
f 343/2/6 340/2/6 344/2/6
f 341/2/6 342/2/6 345/2/6
f 345/2/6 342/2/6 346/2/6
f 344/2/6 345/2/6 347/2/6
f 347/2/6 345/2/6 348/2/6
f 349/2/6 350/2/6 351/2/6
f 351/2/6 350/2/6 352/2/6
f 351/3/6 352/3/6 353/3/6
f 353/3/6 352/3/6 354/3/6
f 355/3/6 356/3/6 359/3/6
f 359/3/6 356/3/6 360/3/6
f 357/3/6 358/3/6 361/3/6
f 361/3/6 358/3/6 362/3/6
f 363/2/6 364/2/6 367/2/6
f 367/2/6 364/2/6 368/2/6
f 365/2/6 366/2/6 369/2/6
f 369/2/6 366/2/6 370/2/6
f 367/3/6 368/3/6 371/3/6
f 371/3/6 368/3/6 372/3/6
f 369/3/6 370/3/6 373/3/6
f 373/3/6 370/3/6 374/3/6
f 375/3/6 376/3/6 378/3/6
f 378/3/6 376/3/6 379/3/6
f 377/1/6 378/1/6 381/1/6
f 379/1/6 380/1/6 381/1/6
f 378/1/6 379/1/6 381/1/6
f 381/1/6 380/1/6 382/1/6
f 382/1/6 380/1/6 383/1/6
f 383/1/6 380/1/6 384/1/6
f 382/2/6 383/2/6 385/2/6
f 385/2/6 383/2/6 386/2/6
f 385/3/6 386/3/6 387/3/6
f 387/3/6 386/3/6 388/3/6
