# MagicaVoxel @ Ephtracy

# group
g rockets

# material
mtllib rockets.mtl
usemtl palette

# normals
vn -1 0 0
vn 1 0 0
vn 0 0 1
vn 0 0 -1
vn 0 -1 0
vn 0 1 0

# texcoords
vt 0.873047 0.5
vt 0.958984 0.5
vt 0.962891 0.5
vt 0.982422 0.5
vt 0.990234 0.5
vt 0.994141 0.5

# verts
v -2.5 4 -1.5
v -2.5 4 -2.5
v -2.5 5 -1.5
v -2.5 5 -2.5
v -1.5 4 3.5
v -1.5 4 2.5
v -1.5 4 -0.5
v -1.5 4 -1.5
v -1.5 5 3.5
v -1.5 5 2.5
v -1.5 5 -0.5
v -1.5 5 -1.5
v -0.5 2 -1.5
v -0.5 2 -2.5
v -0.5 3 3.5
v -0.5 3 -0.5
v -0.5 3 -1.5
v -0.5 4 4.5
v -0.5 4 3.5
v -0.5 4 2.5
v -0.5 4 -0.5
v -0.5 4 -1.5
v -0.5 4 -2.5
v -0.5 5 4.5
v -0.5 5 3.5
v -0.5 5 2.5
v -0.5 5 -0.5
v -0.5 5 -1.5
v -0.5 5 -2.5
v -0.5 6 3.5
v -0.5 6 -0.5
v -0.5 6 -1.5
v -0.5 7 -1.5
v -0.5 7 -2.5
v 0.5 4 -1.5
v 0.5 4 -2.5
v 0.5 5 -1.5
v 0.5 5 -2.5
v -0.5 4 -1.5
v -0.5 4 -2.5
v -0.5 5 -1.5
v -0.5 5 -2.5
v 0.5 2 -1.5
v 0.5 2 -2.5
v 0.5 3 3.5
v 0.5 3 -0.5
v 0.5 3 -1.5
v 0.5 4 4.5
v 0.5 4 3.5
v 0.5 4 2.5
v 0.5 4 -0.5
v 0.5 4 -1.5
v 0.5 4 -2.5
v 0.5 5 4.5
v 0.5 5 3.5
v 0.5 5 2.5
v 0.5 5 -0.5
v 0.5 5 -1.5
v 0.5 5 -2.5
v 0.5 6 3.5
v 0.5 6 -0.5
v 0.5 6 -1.5
v 0.5 7 -1.5
v 0.5 7 -2.5
v 1.5 4 3.5
v 1.5 4 2.5
v 1.5 4 -0.5
v 1.5 4 -1.5
v 1.5 5 3.5
v 1.5 5 2.5
v 1.5 5 -0.5
v 1.5 5 -1.5
v 2.5 4 -1.5
v 2.5 4 -2.5
v 2.5 5 -1.5
v 2.5 5 -2.5
v -0.5 4 4.5
v -0.5 5 4.5
v 0.5 4 4.5
v 0.5 5 4.5
v -1.5 4 3.5
v -1.5 5 3.5
v -0.5 3 3.5
v -0.5 4 3.5
v -0.5 5 3.5
v -0.5 6 3.5
v 0.5 3 3.5
v 0.5 4 3.5
v 0.5 5 3.5
v 0.5 6 3.5
v 1.5 4 3.5
v 1.5 5 3.5
v -1.5 4 -0.5
v -1.5 5 -0.5
v -0.5 4 -0.5
v -0.5 5 -0.5
v 0.5 4 -0.5
v 0.5 5 -0.5
v 1.5 4 -0.5
v 1.5 5 -0.5
v -2.5 4 -1.5
v -2.5 5 -1.5
v -1.5 4 -1.5
v -1.5 5 -1.5
v -0.5 2 -1.5
v -0.5 3 -1.5
v -0.5 6 -1.5
v -0.5 7 -1.5
v 0.5 2 -1.5
v 0.5 3 -1.5
v 0.5 6 -1.5
v 0.5 7 -1.5
v 1.5 4 -1.5
v 1.5 5 -1.5
v 2.5 4 -1.5
v 2.5 5 -1.5
v -1.5 4 2.5
v -1.5 5 2.5
v -0.5 4 2.5
v -0.5 5 2.5
v 0.5 4 2.5
v 0.5 5 2.5
v 1.5 4 2.5
v 1.5 5 2.5
v -0.5 4 -1.5
v -0.5 5 -1.5
v 0.5 4 -1.5
v 0.5 5 -1.5
v -2.5 4 -2.5
v -2.5 5 -2.5
v -0.5 2 -2.5
v -0.5 4 -2.5
v -0.5 5 -2.5
v -0.5 7 -2.5
v 0.5 2 -2.5
v 0.5 4 -2.5
v 0.5 5 -2.5
v 0.5 7 -2.5
v 2.5 4 -2.5
v 2.5 5 -2.5
v -0.5 2 -1.5
v 0.5 2 -1.5
v -0.5 2 -2.5
v 0.5 2 -2.5
v -0.5 3 3.5
v 0.5 3 3.5
v -0.5 3 -0.5
v 0.5 3 -0.5
v -0.5 3 -1.5
v 0.5 3 -1.5
v -0.5 4 4.5
v 0.5 4 4.5
v -1.5 4 3.5
v -0.5 4 3.5
v 0.5 4 3.5
v 1.5 4 3.5
v -1.5 4 2.5
v -0.5 4 2.5
v 0.5 4 2.5
v 1.5 4 2.5
v -1.5 4 -0.5
v -0.5 4 -0.5
v 0.5 4 -0.5
v 1.5 4 -0.5
v -2.5 4 -1.5
v -1.5 4 -1.5
v -0.5 4 -1.5
v 0.5 4 -1.5
v 1.5 4 -1.5
v 2.5 4 -1.5
v -2.5 4 -2.5
v -0.5 4 -2.5
v 0.5 4 -2.5
v 2.5 4 -2.5
v -0.5 5 -1.5
v 0.5 5 -1.5
v -0.5 5 -2.5
v 0.5 5 -2.5
v -0.5 4 -1.5
v 0.5 4 -1.5
v -0.5 4 -2.5
v 0.5 4 -2.5
v -0.5 5 4.5
v 0.5 5 4.5
v -1.5 5 3.5
v -0.5 5 3.5
v 0.5 5 3.5
v 1.5 5 3.5
v -1.5 5 2.5
v -0.5 5 2.5
v 0.5 5 2.5
v 1.5 5 2.5
v -1.5 5 -0.5
v -0.5 5 -0.5
v 0.5 5 -0.5
v 1.5 5 -0.5
v -2.5 5 -1.5
v -1.5 5 -1.5
v -0.5 5 -1.5
v 0.5 5 -1.5
v 1.5 5 -1.5
v 2.5 5 -1.5
v -2.5 5 -2.5
v -0.5 5 -2.5
v 0.5 5 -2.5
v 2.5 5 -2.5
v -0.5 6 3.5
v 0.5 6 3.5
v -0.5 6 -0.5
v 0.5 6 -0.5
v -0.5 6 -1.5
v 0.5 6 -1.5
v -0.5 7 -1.5
v 0.5 7 -1.5
v -0.5 7 -2.5
v 0.5 7 -2.5

# faces
f 3/5/1 2/5/1 1/5/1
f 4/5/1 2/5/1 3/5/1
f 9/3/1 6/3/1 5/3/1
f 10/3/1 6/3/1 9/3/1
f 11/4/1 8/4/1 7/4/1
f 12/4/1 8/4/1 11/4/1
f 17/5/1 14/5/1 13/5/1
f 19/3/1 16/3/1 15/3/1
f 20/3/1 16/3/1 19/3/1
f 21/4/1 17/4/1 16/4/1
f 21/3/1 16/3/1 20/3/1
f 22/5/1 14/5/1 17/5/1
f 22/4/1 17/4/1 21/4/1
f 23/5/1 14/5/1 22/5/1
f 24/6/1 19/6/1 18/6/1
f 25/6/1 19/6/1 24/6/1
f 26/1/1 21/1/1 20/1/1
f 27/1/1 21/1/1 26/1/1
f 30/3/1 26/3/1 25/3/1
f 30/3/1 27/3/1 26/3/1
f 31/4/1 28/4/1 27/4/1
f 31/3/1 27/3/1 30/3/1
f 32/5/1 29/5/1 28/5/1
f 32/4/1 28/4/1 31/4/1
f 33/5/1 29/5/1 32/5/1
f 34/5/1 29/5/1 33/5/1
f 37/5/1 36/5/1 35/5/1
f 38/5/1 36/5/1 37/5/1
f 39/5/2 40/5/2 41/5/2
f 41/5/2 40/5/2 42/5/2
f 43/5/2 44/5/2 47/5/2
f 45/3/2 46/3/2 49/3/2
f 49/3/2 46/3/2 50/3/2
f 46/4/2 47/4/2 51/4/2
f 50/3/2 46/3/2 51/3/2
f 47/5/2 44/5/2 52/5/2
f 51/4/2 47/4/2 52/4/2
f 52/5/2 44/5/2 53/5/2
f 48/6/2 49/6/2 54/6/2
f 54/6/2 49/6/2 55/6/2
f 50/1/2 51/1/2 56/1/2
f 56/1/2 51/1/2 57/1/2
f 55/3/2 56/3/2 60/3/2
f 56/3/2 57/3/2 60/3/2
f 57/4/2 58/4/2 61/4/2
f 60/3/2 57/3/2 61/3/2
f 58/5/2 59/5/2 62/5/2
f 61/4/2 58/4/2 62/4/2
f 62/5/2 59/5/2 63/5/2
f 63/5/2 59/5/2 64/5/2
f 65/3/2 66/3/2 69/3/2
f 69/3/2 66/3/2 70/3/2
f 67/4/2 68/4/2 71/4/2
f 71/4/2 68/4/2 72/4/2
f 73/5/2 74/5/2 75/5/2
f 75/5/2 74/5/2 76/5/2
f 79/6/3 78/6/3 77/6/3
f 80/6/3 78/6/3 79/6/3
f 84/3/3 82/3/3 81/3/3
f 85/3/3 82/3/3 84/3/3
f 87/3/3 84/3/3 83/3/3
f 88/3/3 84/3/3 87/3/3
f 89/3/3 86/3/3 85/3/3
f 90/3/3 86/3/3 89/3/3
f 91/3/3 89/3/3 88/3/3
f 92/3/3 89/3/3 91/3/3
f 95/4/3 94/4/3 93/4/3
f 96/4/3 94/4/3 95/4/3
f 99/4/3 98/4/3 97/4/3
f 100/4/3 98/4/3 99/4/3
f 103/5/3 102/5/3 101/5/3
f 104/5/3 102/5/3 103/5/3
f 109/5/3 106/5/3 105/5/3
f 110/5/3 106/5/3 109/5/3
f 111/5/3 108/5/3 107/5/3
f 112/5/3 108/5/3 111/5/3
f 115/5/3 114/5/3 113/5/3
f 116/5/3 114/5/3 115/5/3
f 117/3/4 118/3/4 119/3/4
f 119/3/4 118/3/4 120/3/4
f 121/3/4 122/3/4 123/3/4
f 123/3/4 122/3/4 124/3/4
f 125/6/4 126/6/4 127/6/4
f 127/6/4 126/6/4 128/6/4
f 129/5/4 130/5/4 132/5/4
f 132/5/4 130/5/4 133/5/4
f 131/5/4 132/5/4 135/5/4
f 135/5/4 132/5/4 136/5/4
f 133/5/4 134/5/4 137/5/4
f 137/5/4 134/5/4 138/5/4
f 136/5/4 137/5/4 139/5/4
f 139/5/4 137/5/4 140/5/4
f 143/5/5 142/5/5 141/5/5
f 144/5/5 142/5/5 143/5/5
f 147/3/5 146/3/5 145/3/5
f 148/3/5 146/3/5 147/3/5
f 149/4/5 148/4/5 147/4/5
f 150/4/5 148/4/5 149/4/5
f 154/6/5 152/6/5 151/6/5
f 155/6/5 152/6/5 154/6/5
f 157/3/5 154/3/5 153/3/5
f 158/3/5 154/3/5 157/3/5
f 159/3/5 156/3/5 155/3/5
f 160/3/5 156/3/5 159/3/5
f 166/4/5 162/4/5 161/4/5
f 167/4/5 162/4/5 166/4/5
f 168/4/5 164/4/5 163/4/5
f 169/4/5 164/4/5 168/4/5
f 171/5/5 167/5/5 166/5/5
f 171/5/5 166/5/5 165/5/5
f 172/5/5 167/5/5 171/5/5
f 173/5/5 169/5/5 168/5/5
f 173/5/5 170/5/5 169/5/5
f 174/5/5 170/5/5 173/5/5
f 177/5/5 176/5/5 175/5/5
f 178/5/5 176/5/5 177/5/5
f 179/5/6 180/5/6 181/5/6
f 181/5/6 180/5/6 182/5/6
f 183/6/6 184/6/6 186/6/6
f 186/6/6 184/6/6 187/6/6
f 185/3/6 186/3/6 189/3/6
f 189/3/6 186/3/6 190/3/6
f 187/3/6 188/3/6 191/3/6
f 191/3/6 188/3/6 192/3/6
f 193/4/6 194/4/6 198/4/6
f 198/4/6 194/4/6 199/4/6
f 195/4/6 196/4/6 200/4/6
f 200/4/6 196/4/6 201/4/6
f 198/5/6 199/5/6 203/5/6
f 197/5/6 198/5/6 203/5/6
f 203/5/6 199/5/6 204/5/6
f 200/5/6 201/5/6 205/5/6
f 201/5/6 202/5/6 205/5/6
f 205/5/6 202/5/6 206/5/6
f 207/3/6 208/3/6 209/3/6
f 209/3/6 208/3/6 210/3/6
f 209/4/6 210/4/6 211/4/6
f 211/4/6 210/4/6 212/4/6
f 213/5/6 214/5/6 215/5/6
f 215/5/6 214/5/6 216/5/6
